<svg xmlns="http://www.w3.org/2000/svg" xmlns:xlink="http://www.w3.org/1999/xlink" width="500" zoomAndPan="magnify" viewBox="0 0 375 374.999991" height="500" preserveAspectRatio="xMidYMid meet" version="1.0"><defs><clipPath id="ed7db56686"><path d="M 29.3125 5.589844 L 345 5.589844 L 345 369.339844 L 29.3125 369.339844 Z M 29.3125 5.589844 " clip-rule="nonzero"/></clipPath></defs><g clip-path="url(#ed7db56686)"><path fill="#000000" d="M 279.75 263.058594 L 299.011719 242.550781 C 297.878906 242.929688 296.902344 243.46875 296.039062 244.144531 C 243.460938 285.21875 206.949219 312 198.484375 336.792969 C 197.808594 338.777344 194.875 338.238281 194.941406 336.148438 C 195.125 330.355469 195.421875 324.585938 195.824219 318.820312 C 196.191406 313.566406 201.097656 311.261719 217.710938 293.996094 C 243.699219 266.984375 273.328125 244.488281 304.472656 223.839844 C 306.308594 222.621094 307.90625 222.296875 309.917969 223.109375 C 321.320312 227.6875 324.820312 228.84375 332.496094 232.15625 C 328.109375 227.75 324.363281 225.332031 307.242188 213.957031 C 305.035156 212.492188 302.957031 212.660156 300.953125 214.535156 C 298.253906 217.058594 291.429688 222.476562 288.320312 224.984375 C 277.140625 208.46875 275.238281 207.003906 275.539062 201.949219 C 275.730469 198.757812 274.914062 195.984375 272.175781 193.820312 C 270.183594 192.242188 268.746094 189.972656 266.800781 188.3125 C 264.023438 185.945312 262.683594 183.199219 263.351562 179.550781 C 263.429688 179.132812 263.203125 178.660156 263.054688 177.894531 C 259.96875 180.460938 257.113281 182.765625 254.359375 185.1875 C 252.890625 186.476562 252.929688 205.027344 250.90625 226.671875 C 250.171875 234.503906 244.878906 240.59375 237.746094 242.117188 C 246.785156 186.082031 245.851562 188.007812 248 186.28125 C 253.34375 181.988281 258.644531 177.628906 264.183594 173.601562 C 266.664062 171.796875 267.355469 169.742188 267.34375 166.863281 C 267.269531 149.648438 267.476562 132.429688 267.3125 115.214844 C 267.171875 100.285156 262.242188 85.496094 256.726562 76.796875 C 256.148438 75.886719 254.84375 75.824219 254.1875 76.679688 L 233.128906 103.984375 L 239.9375 58.296875 C 240.464844 54.761719 237.75 52.757812 237.921875 52.90625 C 233.71875 49.316406 219.84375 41.695312 204.1875 38.996094 C 202.699219 38.738281 201.933594 38.292969 201.480469 36.894531 C 197.730469 25.335938 197.148438 24.214844 190.078125 5.664062 C 187.777344 11.003906 179.828125 36.121094 179.824219 36.136719 C 179.289062 37.816406 178.753906 38.734375 176.730469 39.101562 C 136.496094 46.449219 106.628906 78.214844 106.84375 118.132812 C 106.933594 135.089844 106.898438 152.050781 106.84375 169.007812 C 106.824219 174.722656 111.238281 171.421875 111.203125 177.113281 C 111.019531 203.828125 111.914062 205.324219 110.097656 209.808594 C 108.761719 213.089844 102.492188 228.15625 100.65625 231.578125 C 98.667969 230.996094 98.339844 230.085938 99.121094 228.296875 C 101.871094 222.03125 104.488281 215.710938 107.042969 209.363281 C 108.089844 206.769531 107.941406 207.441406 107.78125 179.972656 C 107.78125 179.464844 107.640625 178.957031 107.496094 178.003906 C 96.914062 193.566406 94.453125 196.207031 94.050781 201.871094 C 93.96875 203.03125 93.984375 202.742188 83.421875 217.792969 C 80.296875 215.269531 77.332031 212.964844 74.464844 210.539062 C 72.230469 208.648438 70.027344 208.296875 67.449219 209.890625 C 63.015625 212.628906 67.203125 209.488281 40.917969 226.199219 L 53.148438 234.429688 L 29.316406 253.292969 L 51.675781 267.792969 L 42.289062 274.695312 C 61.542969 283.371094 80.46875 292.183594 99.632812 300.445312 C 123.761719 310.84375 131.125 324.972656 141.011719 339.742188 L 141.703125 339.484375 C 131.574219 307.734375 132.824219 303.625 113.550781 291.78125 C 58.539062 257.980469 31.179688 251.371094 48.273438 254.785156 C 83.125 261.746094 122.019531 276.019531 145.871094 301.972656 C 149.265625 305.667969 148.199219 311.609375 148.691406 318.699219 C 149.066406 324.0625 156.792969 324.136719 188.15625 366.230469 C 188.894531 367.222656 189.675781 368.179688 190.527344 369.265625 C 191.109375 368.628906 197.046875 360.800781 197.34375 360.398438 C 231.589844 313.695312 231.625 324.292969 231.960938 319.257812 C 232.421875 312.308594 231.65625 306.304688 234.765625 302.742188 C 250.53125 284.6875 274.03125 271.664062 296.410156 263.066406 C 319.730469 254.105469 345.816406 249.207031 279.75 263.058594 Z M 117.203125 163.179688 C 117.558594 158.671875 118.105469 154.183594 118.96875 149.648438 C 122.082031 164.1875 118.578125 156.390625 140.515625 179.035156 C 143.511719 182.125 142.921875 181.917969 146.457031 218.320312 C 146.871094 222.597656 147.089844 222.519531 146.5625 222.605469 C 137.359375 183.585938 138.332031 184.085938 134.40625 180.542969 C 128.941406 175.609375 123.71875 170.402344 118.441406 165.261719 C 117.867188 164.707031 117.152344 163.84375 117.203125 163.179688 Z M 141.382812 241.820312 C 135.71875 238.785156 131.84375 234.722656 131.640625 228.6875 C 131.269531 217.851562 131.535156 206.996094 131.535156 196.460938 Z M 182.800781 336.71875 C 171.753906 306.558594 137.433594 291.105469 71.359375 228.753906 C 65.421875 223.148438 61.988281 224.316406 57.238281 224.664062 C 61.238281 222.421875 64.828125 220.292969 68.546875 218.433594 C 69.175781 218.117188 70.535156 218.738281 71.289062 219.292969 C 138.113281 268.125 121.289062 254.125 182.75 313.457031 C 186.324219 316.90625 185.464844 318.527344 186.328125 336.003906 C 186.433594 338.085938 183.519531 338.675781 182.800781 336.71875 Z M 155.195312 259.300781 C 151.464844 256.59375 150.515625 253.421875 150.777344 248.976562 L 190.582031 278.75 L 190.582031 192.800781 C 190.605469 187.183594 189.734375 189.324219 165.050781 172.859375 C 165.78125 172.667969 166.324219 172.824219 166.832031 173.058594 C 189.023438 183.371094 189.929688 184.304688 192.535156 183.214844 C 208.019531 176.75 223.46875 170.1875 238.839844 163.460938 C 240.558594 162.707031 242.386719 161.042969 243.089844 159.355469 C 249.394531 144.214844 249.242188 138.824219 249.988281 134.097656 C 232.96875 151.535156 214.234375 159.121094 191.273438 168.691406 C 190.53125 169.003906 189.414062 168.859375 188.625 168.539062 C 168.640625 160.4375 149.054688 153.042969 134.164062 138.386719 C 130.195312 134.484375 127.328125 130.34375 128.425781 124.449219 C 128.757812 122.667969 127.375 103.101562 144.507812 88.003906 C 147.242188 85.59375 150.476562 83.746094 153.480469 81.640625 C 153.203125 91.335938 155.847656 99.636719 159.859375 107.632812 C 171.332031 130.484375 184.320312 144.105469 190.003906 151.296875 C 208.007812 137.929688 231.308594 87.28125 226.605469 72.667969 C 222.761719 104.597656 202.136719 130.726562 190.300781 141.238281 C 186.746094 86.753906 187.1875 83.445312 185.15625 54.808594 C 184.273438 42.390625 187.5625 30.757812 190.449219 18.945312 C 192.066406 24.742188 193.585938 30.523438 194.84375 36.359375 C 197.148438 47.054688 196.71875 36.433594 191.230469 133.269531 L 191.867188 133.347656 C 198.398438 104.320312 206.253906 75.5 205.179688 45.027344 C 212.980469 47.421875 219.804688 49.117188 226.257812 54.109375 L 219.800781 66.191406 L 233.710938 63.585938 L 224.4375 130.339844 L 241.535156 104.566406 L 240.519531 128.3125 C 254.621094 78.105469 252.0625 86.019531 252.730469 87.355469 C 260.257812 102.375 259.039062 110.992188 258.699219 163.472656 C 258.683594 165.824219 257.925781 166.480469 241.679688 178.9375 C 239.523438 180.589844 238.3125 182.488281 237.929688 185.292969 C 234.765625 208.347656 231.46875 231.386719 228.136719 254.414062 C 227.785156 256.828125 228.359375 255.472656 192.042969 284.820312 C 189.03125 287.253906 190.359375 284.796875 155.195312 259.300781 Z M 323.703125 268.019531 L 333.132812 275.109375 C 286.308594 296.472656 264.988281 302.921875 250.3125 323.855469 C 242.980469 334.320312 241.441406 338.46875 239.472656 339.515625 C 246.007812 315.566406 247.835938 302.246094 269.148438 289.496094 C 292.808594 275.347656 313.636719 264.015625 337.195312 251.808594 L 324.566406 241.273438 L 324.972656 240.699219 L 344.832031 254.078125 Z M 323.703125 268.019531 " fill-opacity="1" fill-rule="nonzero"/></g></svg>