<svg xmlns="http://www.w3.org/2000/svg" xmlns:xlink="http://www.w3.org/1999/xlink" width="500" zoomAndPan="magnify" viewBox="0 0 375 374.999991" height="500" preserveAspectRatio="xMidYMid meet" version="1.0"><path fill="#000000" d="M 89.886719 190.476562 C 87.421875 187.710938 86.335938 183.984375 86.769531 180.308594 L 86.785156 180.191406 C 86.859375 179.5625 87.101562 178.972656 87.488281 178.476562 C 90.617188 174.484375 92.601562 171.105469 92.601562 171.105469 C 75.25 177.714844 50.46875 153.734375 50.46875 153.734375 C 50.46875 153.734375 50.140625 154.820312 50.003906 156.824219 L 50 156.765625 C 50 156.765625 49.148438 159.328125 48.964844 162.859375 C 48.945312 163.1875 48.847656 163.507812 48.671875 163.78125 L 48.667969 163.785156 C 48.101562 164.75 47.535156 165.917969 47.125 167.234375 C 46.9375 167.894531 46.703125 168.601562 46.589844 169.324219 C 46.519531 169.683594 46.457031 170.058594 46.394531 170.4375 C 46.316406 170.816406 46.289062 171.199219 46.257812 171.585938 C 46.222656 171.976562 46.195312 172.371094 46.171875 172.773438 L 46.167969 172.820312 C 46.160156 173.136719 46.148438 173.664062 46.140625 173.984375 C 46.148438 174.386719 46.15625 174.796875 46.167969 175.210938 C 46.191406 175.621094 46.179688 176.054688 46.238281 176.464844 C 46.324219 177.285156 46.4375 178.125 46.554688 178.980469 C 46.691406 179.824219 46.890625 180.652344 47.082031 181.5 C 47.261719 182.351562 47.507812 183.175781 47.78125 183.992188 C 47.914062 184.402344 48.042969 184.816406 48.183594 185.226562 L 48.546875 186.3125 C 48.816406 187.078125 49.082031 187.839844 49.371094 188.59375 L 49.582031 189.160156 L 49.746094 189.671875 C 49.855469 190.003906 49.957031 190.335938 50.074219 190.667969 C 50.300781 191.328125 50.542969 191.976562 50.726562 192.667969 C 50.832031 193.007812 50.9375 193.34375 51.039062 193.679688 C 51.140625 194.015625 51.265625 194.351562 51.335938 194.679688 C 51.503906 195.339844 51.691406 195.992188 51.867188 196.628906 C 52 197.265625 52.148438 197.894531 52.304688 198.507812 C 52.414062 199.121094 52.523438 199.71875 52.644531 200.308594 C 52.726562 200.890625 52.796875 201.457031 52.886719 202.015625 C 52.941406 202.574219 52.988281 203.101562 53.035156 203.613281 C 53.050781 204.113281 53.078125 204.613281 53.082031 205.078125 C 53.078125 206.007812 53.039062 206.847656 52.949219 207.542969 C 52.875 208.242188 52.757812 208.804688 52.671875 209.195312 C 52.578125 209.582031 52.507812 209.792969 52.507812 209.792969 C 52.507812 209.792969 52.714844 209.714844 53.074219 209.492188 C 53.25 209.378906 53.472656 209.238281 53.707031 209.042969 C 53.824219 208.941406 53.960938 208.839844 54.09375 208.726562 C 54.21875 208.601562 54.351562 208.472656 54.496094 208.335938 C 55.070312 207.777344 55.667969 207.015625 56.269531 206.066406 C 56.574219 205.589844 56.816406 205.0625 57.121094 204.496094 C 57.3125 204.0625 57.492188 203.605469 57.679688 203.125 C 59.632812 205.292969 62.339844 207.265625 66.09375 208.671875 C 66.09375 208.671875 60.222656 203.761719 59.65625 195.828125 L 59.667969 195.820312 C 60.511719 195.269531 61.640625 195.492188 62.199219 196.328125 C 62.625 196.964844 63.074219 197.597656 63.550781 198.226562 C 63.625 198.394531 63.695312 198.566406 63.773438 198.734375 C 64.066406 199.363281 64.371094 199.992188 64.621094 200.660156 C 64.761719 200.988281 64.894531 201.3125 65.03125 201.640625 C 65.167969 201.960938 65.324219 202.277344 65.425781 202.601562 C 65.652344 203.238281 65.90625 203.871094 66.144531 204.492188 C 66.339844 205.113281 66.546875 205.71875 66.765625 206.320312 C 66.933594 206.917969 67.097656 207.5 67.277344 208.074219 C 67.417969 208.644531 67.542969 209.203125 67.6875 209.75 C 67.792969 210.296875 67.894531 210.824219 67.992188 211.324219 C 68.058594 211.824219 68.128906 212.316406 68.183594 212.78125 C 68.269531 213.703125 68.3125 214.542969 68.292969 215.242188 C 68.285156 215.953125 68.226562 216.515625 68.175781 216.914062 C 68.125 217.3125 68.070312 217.53125 68.070312 217.53125 C 68.070312 217.53125 68.273438 217.433594 68.605469 217.171875 C 68.769531 217.042969 68.980469 216.878906 69.191406 216.664062 C 69.300781 216.554688 69.425781 216.4375 69.546875 216.308594 C 69.660156 216.175781 69.78125 216.03125 69.90625 215.882812 C 70.421875 215.269531 70.945312 214.453125 71.449219 213.449219 C 71.707031 212.949219 71.898438 212.394531 72.140625 211.804688 C 72.339844 211.210938 72.519531 210.574219 72.695312 209.898438 C 72.824219 209.234375 72.960938 208.527344 73.0625 207.789062 C 73.078125 207.617188 73.089844 207.4375 73.105469 207.261719 C 76.109375 209.3125 79.605469 211.148438 83.679688 212.675781 C 83.679688 212.675781 79.925781 209.539062 76.332031 203.929688 C 74.117188 200.480469 74.804688 195.917969 77.878906 193.207031 L 77.976562 193.21875 C 78.074219 193.363281 78.175781 193.507812 78.28125 193.652344 C 78.582031 194.054688 78.894531 194.449219 79.179688 194.894531 C 79.46875 195.320312 79.800781 195.734375 80.070312 196.15625 C 80.339844 196.570312 80.628906 196.980469 80.90625 197.382812 C 81.152344 197.792969 81.414062 198.1875 81.675781 198.578125 C 81.90625 198.972656 82.132812 199.363281 82.375 199.738281 C 82.582031 200.121094 82.78125 200.492188 82.996094 200.855469 C 83.175781 201.222656 83.351562 201.578125 83.535156 201.929688 C 83.691406 202.289062 83.839844 202.628906 83.980469 202.945312 C 84.246094 203.597656 84.460938 204.207031 84.605469 204.730469 C 84.757812 205.261719 84.847656 205.699219 84.902344 206.015625 C 84.953125 206.324219 84.964844 206.503906 84.964844 206.503906 C 84.964844 206.503906 85.121094 206.414062 85.371094 206.1875 C 85.496094 206.074219 85.648438 205.925781 85.800781 205.734375 C 85.878906 205.644531 85.96875 205.542969 86.054688 205.429688 C 86.136719 205.316406 86.21875 205.191406 86.308594 205.0625 C 86.671875 204.535156 87.011719 203.84375 87.316406 203 C 87.472656 202.582031 87.570312 202.128906 87.703125 201.640625 C 87.800781 201.152344 87.878906 200.632812 87.945312 200.085938 C 87.964844 199.769531 87.980469 199.433594 87.992188 199.097656 C 93.425781 201.453125 100.332031 202.574219 108.871094 200.714844 C 108.871094 200.714844 97.792969 199.34375 89.886719 190.476562 " fill-opacity="1" fill-rule="nonzero"/><path fill="#000000" d="M 230.011719 257.265625 C 285.773438 194.273438 267.265625 157.773438 267.265625 157.773438 C 256.058594 204.0625 204.859375 241.960938 204.859375 241.960938 C 119.492188 308.484375 198.972656 375.015625 198.972656 375.015625 C 198.972656 375.015625 174.246094 320.261719 230.011719 257.265625 " fill-opacity="1" fill-rule="nonzero"/><path fill="#000000" d="M 230.011719 198.984375 C 288.71875 128.925781 230.011719 111.851562 230.011719 111.851562 C 257.292969 147.554688 222.347656 182.125 222.347656 182.125 C 248.042969 115.453125 197.230469 120.109375 197.230469 120.109375 C 221.566406 151.511719 194.875 155.4375 140.707031 221.378906 C 86.542969 287.320312 165.332031 366.605469 165.332031 366.605469 C 131.863281 262.199219 171.300781 269.042969 230.011719 198.984375 " fill-opacity="1" fill-rule="nonzero"/><path fill="#000000" d="M 129.71875 219.808594 C 66.917969 267.691406 129.71875 337.558594 129.71875 337.558594 C 99.886719 277.898438 129.71875 219.808594 129.71875 219.808594 " fill-opacity="1" fill-rule="nonzero"/><path fill="#000000" d="M 163.082031 21.59375 C 129.039062 24.457031 121.578125 53.242188 120.539062 58.234375 C 125.515625 56.546875 131.464844 55.410156 138.511719 55.316406 C 141.289062 31.363281 163.082031 21.59375 163.082031 21.59375 " fill-opacity="1" fill-rule="nonzero"/><path fill="#000000" d="M 266.308594 80.074219 C 296.140625 80.859375 337.746094 116.972656 337.746094 116.972656 C 337.746094 116.972656 339.316406 112.261719 307.523438 83.214844 C 275.730469 54.171875 205.472656 56.132812 205.472656 56.132812 C 250.21875 43.964844 265.917969 60.449219 298.496094 67.121094 C 331.074219 73.796875 337.746094 44.359375 337.746094 44.359375 C 337.746094 44.359375 300.851562 55.738281 263.957031 40.039062 C 227.058594 24.339844 199.191406 41.609375 199.191406 41.609375 C 211.070312 40.476562 221.171875 43.574219 221.171875 43.574219 C 199.191406 41.609375 171.714844 56.917969 171.714844 56.917969 C 210.96875 12.957031 257.675781 31.40625 257.675781 31.40625 C 257.675781 31.40625 278.476562 44.359375 289.074219 41.609375 C 299.671875 38.863281 308.699219 24.339844 308.699219 24.339844 C 287.503906 29.050781 270.628906 25.515625 270.628906 25.515625 C 270.628906 25.515625 227.453125 0.00390625 189.378906 13.347656 C 156.5625 24.851562 142.410156 48.890625 139.128906 55.308594 C 139.246094 55.308594 139.359375 55.304688 139.480469 55.304688 C 144.5625 55.304688 150.011719 55.839844 155.679688 56.902344 L 155.761719 56.902344 C 158.664062 56.902344 167.257812 57.3125 172.53125 61.890625 C 173.144531 62.089844 173.746094 62.300781 174.347656 62.507812 C 178.980469 60.640625 187.910156 57.566406 196.511719 57.566406 C 207.742188 57.566406 215.03125 62.765625 217.59375 72.609375 C 219.351562 79.382812 218.890625 85.757812 216.292969 91.488281 C 306.183594 139.878906 261.375 236.660156 261.375 236.660156 C 208.046875 300.40625 236.652344 320.851562 236.652344 320.851562 C 240.421875 290.707031 261.3125 267.070312 275.863281 253.964844 C 288.359375 242.710938 297.121094 227.863281 300.554688 211.398438 C 318.96875 123.015625 227.058594 89.886719 227.058594 89.886719 C 358.941406 120.503906 303.992188 238.648438 303.992188 238.648438 C 303.992188 238.648438 337.757812 222.554688 337.757812 163.679688 C 337.757812 104.804688 266.308594 80.074219 266.308594 80.074219 " fill-opacity="1" fill-rule="nonzero"/><path fill="#000000" d="M 118.464844 90.28125 C 118.464844 90.28125 123.4375 79.550781 139.921875 85.308594 C 139.921875 85.308594 137.566406 93.941406 122.261719 94.726562 C 122.261719 94.726562 100.148438 103.625 97.269531 103.363281 Z M 55.664062 145.230469 C 65.78125 165.460938 84.527344 166.179688 91.992188 165.582031 C 94.128906 165.410156 96.183594 164.671875 97.929688 163.421875 C 98.097656 163.304688 98.257812 163.183594 98.421875 163.0625 C 120.339844 168.902344 139.921875 160.726562 139.921875 160.726562 C 123.019531 163.921875 110.332031 161.988281 102.253906 159.546875 C 103.621094 157.988281 104.652344 156.398438 105.433594 154.855469 C 126.84375 160.070312 145.691406 152.203125 145.691406 152.203125 C 128.082031 155.53125 115.046875 153.292969 107.03125 150.710938 C 107.238281 149.949219 107.390625 149.230469 107.503906 148.5625 C 107.554688 148.257812 107.589844 147.953125 107.613281 147.644531 C 128.933594 152.757812 147.65625 144.941406 147.65625 144.941406 C 128.234375 148.609375 114.382812 145.511719 106.683594 142.648438 C 106.472656 142.195312 106.230469 141.757812 105.953125 141.335938 L 101.804688 135.027344 C 101.804688 135.027344 130.109375 144.054688 146.597656 144.054688 C 163.082031 144.054688 158.761719 174.277344 158.761719 174.277344 C 194.089844 148.765625 173.679688 132.671875 173.679688 132.671875 C 183.492188 130.707031 188.902344 142.484375 188.902344 142.484375 C 188.417969 125.214844 174.855469 111.851562 174.855469 111.851562 C 195.265625 91.425781 184.667969 78.113281 184.667969 78.113281 C 184.667969 78.113281 194.480469 69.476562 203.117188 76.152344 C 211.75 82.824219 194.480469 106.765625 194.480469 106.765625 C 194.480469 106.765625 220.78125 97.347656 214.550781 73.402344 C 208.324219 49.460938 172.5 66.730469 172.5 66.730469 C 168.578125 59.664062 155.40625 60.046875 155.40625 60.046875 C 108.898438 51.214844 98.300781 81.828125 98.300781 81.828125 C 51.789062 89.480469 41.140625 116.9375 41.140625 116.9375 C 51.96875 107.875 70.058594 110.425781 70.058594 110.425781 C 60.636719 113.046875 51.738281 131.621094 51.738281 131.621094 C 51.21875 124.820312 41.164062 117.492188 41.164062 117.492188 C 37.605469 123.132812 41.273438 133.976562 41.273438 133.976562 C 39.703125 150.726562 55.664062 145.230469 55.664062 145.230469 " fill-opacity="1" fill-rule="nonzero"/></svg>