<svg xmlns="http://www.w3.org/2000/svg" xmlns:xlink="http://www.w3.org/1999/xlink" width="500" zoomAndPan="magnify" viewBox="0 0 375 374.999991" height="500" preserveAspectRatio="xMidYMid meet" version="1.0"><defs><clipPath id="a90cde1549"><path d="M 26.101562 12.4375 L 348.601562 12.4375 L 348.601562 362.6875 L 26.101562 362.6875 Z M 26.101562 12.4375 " clip-rule="nonzero"/></clipPath></defs><g clip-path="url(#a90cde1549)"><path fill="#000000" d="M 348.515625 112.289062 L 348.515625 119.699219 C 347.621094 130.777344 343.933594 140.722656 337.453125 149.53125 C 337.394531 149.609375 337.320312 149.628906 337.226562 149.597656 C 337.136719 149.566406 337.09375 149.5 337.09375 149.40625 C 337.742188 138.640625 336.851562 128.9375 330.996094 119.625 C 329.71875 117.589844 328.734375 117.496094 326.46875 117.789062 C 320.875 118.53125 316.714844 119.265625 313.980469 119.996094 C 307.703125 121.671875 301.535156 123.683594 295.476562 126.03125 C 290.414062 127.992188 284.945312 129.328125 279.074219 130.042969 C 277.53125 130.230469 276.175781 130.570312 275.015625 131.0625 C 255.867188 139.128906 240.351562 156.671875 239.683594 178.25 C 239.589844 181.355469 239.652344 183.796875 239.878906 185.570312 C 241.105469 195.257812 244.523438 204.085938 250.128906 212.054688 C 256.328125 220.855469 264.226562 228.128906 272.027344 235.457031 C 287.449219 249.964844 299.054688 266.347656 305.953125 286.332031 C 306.03125 286.5625 306.042969 286.796875 305.992188 287.035156 C 305.9375 287.273438 305.828125 287.480469 305.65625 287.652344 L 289.03125 304.675781 C 288.640625 305.074219 288.480469 304.996094 288.554688 304.441406 C 288.578125 304.273438 288.578125 303.996094 288.558594 303.617188 C 287.164062 273.757812 274.699219 250.597656 251.167969 234.132812 C 245.246094 229.984375 237.761719 226.003906 230.917969 222.320312 C 214.46875 213.464844 201.707031 202.910156 196.742188 184.140625 C 196.6875 183.9375 196.65625 183.941406 196.644531 184.144531 C 196.460938 187.375 197.394531 191.074219 198.105469 194.214844 C 200.613281 205.234375 206.550781 214.789062 215.304688 221.996094 C 222.3125 227.769531 228.507812 231.042969 238.050781 236.527344 C 244.675781 240.335938 250.695312 244.9375 256.109375 250.328125 C 271.816406 265.945312 277.683594 287.023438 277.34375 308.726562 C 277.308594 311.039062 276.78125 313.992188 276.847656 316.710938 C 276.855469 316.90625 276.792969 317.078125 276.65625 317.21875 L 233.109375 362.6875 L 232.894531 362.6875 L 51.929688 249.292969 C 51.738281 249.167969 51.722656 249.027344 51.878906 248.863281 C 53.21875 247.480469 55.117188 245.597656 57.570312 243.214844 C 80.167969 221.226562 99.433594 196.074219 111.667969 167.554688 C 112.890625 164.695312 112.613281 164.539062 110.824219 167.089844 C 109.769531 168.589844 108.464844 170.828125 107.226562 172.46875 C 96.410156 186.777344 82.574219 197.132812 65.714844 203.535156 C 57.121094 206.800781 48.242188 208.886719 39.078125 209.789062 C 34.917969 210.203125 30.6875 210.484375 26.382812 210.632812 C 26.285156 210.636719 26.222656 210.589844 26.199219 210.496094 C 26.175781 210.398438 26.207031 210.328125 26.296875 210.285156 C 26.71875 210.101562 27.019531 209.773438 27.417969 209.609375 C 65.273438 194.039062 96.765625 167.203125 113.128906 129.148438 C 113.671875 127.886719 114 126.972656 114.121094 126.402344 C 114.375 125.191406 114.1875 125.117188 113.5625 126.179688 C 110.792969 130.90625 107.53125 135.269531 103.777344 139.265625 C 94.527344 149.128906 83.160156 154.792969 69.675781 156.261719 C 69.496094 156.28125 69.457031 156.214844 69.558594 156.066406 C 88.59375 128.765625 112.316406 106.054688 142.199219 91.554688 C 142.964844 91.179688 142.921875 91.007812 142.070312 91.03125 C 141.1875 91.046875 140.136719 90.945312 139.191406 91.097656 C 136.226562 91.582031 133.320312 91.410156 130.390625 91.851562 C 129.738281 91.949219 128.886719 92.054688 127.828125 92.167969 C 115.980469 93.445312 103.996094 96.375 91.867188 100.960938 C 91.53125 101.085938 91.460938 101 91.664062 100.699219 C 92.238281 99.828125 93.101562 98.640625 94.246094 97.140625 C 110.855469 75.394531 132.589844 61.726562 159.457031 56.136719 C 159.550781 56.113281 159.601562 56.058594 159.617188 55.960938 C 159.628906 55.867188 159.59375 55.796875 159.507812 55.753906 C 151.839844 51.921875 143.742188 49.507812 135.214844 48.511719 C 130.902344 48 126.96875 47.792969 123.40625 47.882812 C 121.957031 47.917969 121.921875 47.71875 123.3125 47.292969 C 130.546875 45.0625 138.183594 43.34375 145.851562 42.609375 C 147.625 42.445312 149.296875 42.070312 151.027344 42.035156 C 156.484375 41.914062 161.9375 41.921875 167.390625 42.058594 C 169.304688 42.109375 171.277344 42.421875 173.464844 42.65625 C 187.195312 44.121094 200.316406 47.785156 212.828125 53.648438 C 212.914062 53.695312 212.941406 53.765625 212.914062 53.859375 C 212.886719 53.953125 212.820312 53.996094 212.722656 53.988281 C 201.945312 52.394531 191.140625 52.261719 180.316406 53.589844 C 178.75 53.785156 178.734375 54.066406 180.269531 54.4375 C 186.480469 55.945312 192.449219 58.097656 198.179688 60.898438 C 199.773438 61.671875 199.695312 61.917969 197.945312 61.644531 C 196.105469 61.351562 193.828125 61.371094 191.121094 61.699219 C 189.886719 61.847656 188.644531 61.945312 187.402344 61.996094 C 185.925781 62.054688 184.695312 62.183594 183.710938 62.371094 C 169 65.175781 155.664062 71.085938 143.703125 80.101562 C 142.605469 80.925781 140.875 81.945312 139.714844 83.234375 C 139.410156 83.5625 139.46875 83.648438 139.890625 83.484375 C 159.042969 76.0625 178.390625 72.367188 197.929688 72.402344 C 220.5625 72.4375 242.90625 74.808594 264.960938 79.515625 C 265.230469 79.570312 265.457031 79.496094 265.636719 79.285156 L 276.804688 66.761719 C 276.964844 66.585938 276.953125 66.421875 276.757812 66.273438 C 266.089844 58.328125 254.375 52.832031 241.613281 49.78125 C 233.410156 47.816406 221.972656 46.714844 214.855469 45.566406 C 189.664062 41.488281 167.863281 30.5625 149.453125 12.789062 C 149.378906 12.714844 149.367188 12.636719 149.425781 12.546875 C 149.480469 12.457031 149.558594 12.433594 149.65625 12.472656 C 167.851562 19.777344 186.597656 25.347656 205.898438 29.179688 C 213.972656 30.78125 224.253906 32.535156 236.75 34.4375 C 256.949219 37.511719 274.613281 45.84375 289.738281 59.425781 C 289.875 59.546875 289.886719 59.683594 289.773438 59.832031 C 284.703125 66.332031 279.6875 72.816406 274.734375 79.285156 C 274.050781 80.179688 273.246094 80.917969 272.316406 81.5 C 263.234375 87.214844 254.003906 92.21875 244.628906 96.515625 C 238.109375 99.503906 229.378906 102.488281 222.496094 101.667969 C 215.515625 100.835938 210.464844 96.789062 204.597656 93.332031 C 200.683594 91.027344 196.042969 89.804688 190.671875 89.664062 C 176.503906 89.292969 161.152344 96.421875 150.878906 105.445312 C 135.671875 118.804688 125.964844 135.453125 121.765625 155.390625 C 121.429688 156.96875 121.203125 158.605469 121.082031 160.300781 C 121.074219 160.363281 121.101562 160.40625 121.164062 160.417969 C 121.230469 160.433594 121.273438 160.40625 121.292969 160.34375 C 124.386719 152.355469 127.265625 145.917969 133.058594 138.542969 C 137.144531 133.351562 142.023438 129.089844 147.695312 125.765625 C 147.753906 125.734375 147.808594 125.742188 147.851562 125.796875 C 147.898438 125.847656 147.898438 125.902344 147.859375 125.957031 C 145.765625 128.632812 143.535156 131.453125 141.851562 134.234375 C 131.480469 151.324219 129.363281 171.945312 133.308594 191.394531 C 133.324219 191.464844 133.367188 191.503906 133.4375 191.511719 C 133.507812 191.523438 133.558594 191.496094 133.59375 191.433594 C 134.15625 190.316406 134.0625 188.871094 134.207031 187.996094 C 134.695312 185.121094 135.414062 181.75 136.371094 177.886719 C 138.9375 167.523438 143.625 158.097656 150.429688 149.609375 C 152.035156 147.609375 152.257812 147.753906 151.097656 150.042969 C 147.929688 156.292969 146.058594 163.433594 145.488281 171.472656 C 144.71875 182.207031 146.035156 193.027344 149.441406 203.933594 C 149.667969 204.667969 149.894531 205.226562 150.125 205.617188 C 150.375 206.046875 150.472656 206.015625 150.425781 205.519531 C 147.496094 176.667969 159.828125 150.035156 184.695312 135.320312 C 198.753906 127 215.9375 123.839844 232.195312 125.304688 C 233.433594 125.417969 234.472656 125.617188 235.316406 125.902344 C 235.832031 126.074219 235.832031 126.253906 235.316406 126.4375 C 229.296875 128.554688 223.472656 130.421875 217.835938 132.039062 C 217.082031 132.257812 216.367188 132.5625 215.691406 132.957031 C 215.484375 133.078125 215.5 133.144531 215.746094 133.152344 C 217.617188 133.214844 218.929688 133.226562 219.6875 133.179688 C 235.964844 132.128906 251.457031 128.152344 266.160156 121.257812 C 267.03125 120.851562 267.941406 120.625 268.890625 120.574219 C 275.535156 120.246094 282.125 119.46875 288.65625 118.242188 C 290.910156 117.816406 293.074219 117.242188 295.148438 116.515625 C 295.234375 116.484375 295.273438 116.421875 295.257812 116.328125 C 295.242188 116.234375 295.183594 116.183594 295.089844 116.179688 C 289.726562 116.015625 284.453125 116.132812 279.113281 115.824219 C 273.09375 115.484375 267.816406 115.46875 261.078125 115.078125 C 257.015625 114.847656 252.992188 115.023438 248.9375 114.691406 C 243.8125 114.277344 238.632812 114.398438 233.582031 114.03125 C 230.480469 113.804688 227.257812 114.03125 224.191406 113.632812 C 224 113.605469 223.890625 113.496094 223.855469 113.308594 C 223.824219 113.117188 223.890625 112.976562 224.058594 112.886719 C 229.222656 110.171875 234.84375 109.25 240.570312 108.523438 C 242.886719 108.230469 245.660156 108.085938 248.882812 108.097656 C 272.324219 108.175781 295.945312 108.121094 319.746094 107.925781 C 321.121094 107.914062 321.152344 107.703125 319.84375 107.289062 C 318.363281 106.816406 316.910156 107.050781 315.382812 106.832031 C 313.335938 106.542969 312.289062 106.390625 312.238281 106.382812 C 301.988281 105.390625 291.742188 104.390625 281.496094 103.394531 C 281.25 103.371094 281.203125 103.261719 281.359375 103.0625 C 288.089844 94.6875 294.621094 86.15625 300.953125 77.464844 C 302.921875 74.761719 302.710938 74.578125 300.324219 76.917969 C 291.496094 85.539062 283.304688 94.777344 274.402344 103.363281 C 274.3125 103.449219 274.222656 103.449219 274.128906 103.371094 C 274.035156 103.289062 274.027344 103.199219 274.097656 103.097656 L 291.382812 79 C 291.457031 78.894531 291.46875 78.785156 291.40625 78.667969 C 291.347656 78.550781 291.25 78.492188 291.121094 78.496094 L 280.484375 78.515625 C 280.257812 78.515625 280.214844 78.429688 280.351562 78.25 L 290.414062 65.191406 C 290.539062 65.027344 290.707031 64.949219 290.914062 64.953125 C 301.5 65.070312 311.472656 66.519531 320.84375 71.585938 C 335.164062 79.328125 344.101562 91.101562 347.664062 106.90625 C 348.003906 108.429688 347.957031 110.488281 348.515625 112.289062 Z M 231.523438 96.316406 C 236.105469 94.171875 239.484375 89.234375 239.347656 84 C 239.34375 83.902344 239.308594 83.820312 239.238281 83.75 C 239.167969 83.683594 239.082031 83.648438 238.984375 83.648438 L 234.011719 83.625 C 233.914062 83.625 233.828125 83.660156 233.753906 83.726562 C 233.679688 83.796875 233.640625 83.878906 233.632812 83.980469 C 232.796875 94.09375 218.453125 94.085938 217.046875 84.011719 C 217.011719 83.789062 216.882812 83.675781 216.660156 83.671875 L 211.886719 83.609375 C 211.632812 83.605469 211.492188 83.730469 211.46875 83.984375 C 211.3125 85.558594 211.515625 87.082031 212.074219 88.550781 C 215.136719 96.554688 223.785156 99.925781 231.523438 96.316406 Z M 174.460938 206.777344 C 173.3125 203.609375 172.414062 200.363281 171.769531 197.039062 C 171.769531 197.011719 171.753906 197 171.730469 197 C 171.703125 197.003906 171.691406 197.019531 171.691406 197.042969 C 171.585938 197.769531 171.550781 198.5 171.582031 199.238281 C 172.082031 210.53125 175.386719 220.710938 181.496094 229.773438 C 189.859375 242.167969 202.257812 249.496094 214.65625 257.109375 C 234.355469 269.203125 248.644531 287 252.890625 310.148438 C 253.1875 311.738281 253.441406 313.046875 253.652344 314.074219 C 253.867188 315.109375 253.996094 315.101562 254.046875 314.042969 C 254.96875 293.742188 249.359375 275.644531 234.902344 261.164062 C 229.085938 255.335938 223.339844 250.792969 217.660156 247.53125 C 199.636719 237.179688 181.957031 227.410156 174.460938 206.777344 Z M 248.335938 323.140625 C 246.96875 320.015625 245.394531 317 243.601562 314.097656 C 231.285156 294.09375 213.542969 280.996094 191.640625 272.816406 C 187.429688 271.246094 181.65625 269.273438 174.320312 266.902344 C 143.84375 257.046875 120.769531 236.160156 110.933594 205.148438 C 110.90625 205.0625 110.84375 205.027344 110.753906 205.050781 C 110.664062 205.074219 110.625 205.128906 110.632812 205.222656 C 110.703125 205.71875 110.796875 206.28125 110.910156 206.910156 C 111.921875 212.554688 113.332031 218.097656 115.136719 223.539062 C 120.644531 240.15625 130.371094 253.386719 144.320312 263.234375 C 152.800781 269.21875 162.75 273.761719 172.640625 277.0625 C 190.320312 282.957031 203.96875 287.652344 217.683594 296.226562 C 230.210938 304.050781 240.757812 314.191406 249.320312 326.652344 C 249.371094 326.738281 249.441406 326.761719 249.535156 326.726562 C 249.625 326.691406 249.664062 326.625 249.644531 326.527344 C 249.472656 325.28125 248.769531 324.125 248.335938 323.140625 Z M 81.398438 244.347656 L 101.339844 217.96875 C 101.425781 217.859375 101.417969 217.757812 101.3125 217.664062 C 101.210938 217.570312 101.109375 217.570312 101.007812 217.671875 L 68.871094 247.519531 C 68.757812 247.625 68.710938 247.757812 68.726562 247.910156 C 68.742188 248.066406 68.816406 248.183594 68.945312 248.265625 C 99.398438 267.027344 129.828125 285.855469 160.230469 304.757812 C 161.699219 305.667969 162.824219 306.332031 163.609375 306.753906 C 165.394531 307.707031 165.484375 307.570312 163.875 306.339844 C 136.660156 285.523438 109 265.242188 81.464844 244.820312 C 81.28125 244.6875 81.261719 244.53125 81.398438 244.347656 Z M 81.398438 244.347656 " fill-opacity="1" fill-rule="nonzero"/></g></svg>