<svg xmlns="http://www.w3.org/2000/svg" xmlns:xlink="http://www.w3.org/1999/xlink" width="500" zoomAndPan="magnify" viewBox="0 0 375 374.999991" height="500" preserveAspectRatio="xMidYMid meet" version="1.0"><defs><clipPath id="ea30282794"><path d="M 9 37.5 L 99 37.5 L 99 147 L 9 147 Z M 9 37.5 " clip-rule="nonzero"/></clipPath></defs><g clip-path="url(#ea30282794)"><path fill="#000000" d="M 61.175781 67.980469 C 59.285156 71.347656 58.59375 74.207031 59.121094 76.5 C 59.574219 78.46875 60.785156 79.246094 60.835938 79.277344 L 61.121094 79.453125 L 61.25 79.148438 C 68.070312 63.242188 96.652344 39.109375 96.941406 38.871094 L 98.609375 37.46875 L 96.632812 38.386719 C 72 49.851562 52.199219 62.601562 37.796875 76.292969 C 26.253906 87.253906 18.125 98.839844 13.628906 110.734375 C 5.960938 131.011719 11.628906 145.34375 11.6875 145.484375 L 12.058594 146.398438 L 12.234375 145.429688 C 16.992188 119.570312 30.347656 99.671875 40.714844 87.527344 C 49.785156 76.910156 58.203125 70.210938 61.175781 67.980469 " fill-opacity="1" fill-rule="nonzero"/></g><path fill="#000000" d="M 58.925781 117.101562 C 50.683594 105.167969 54.871094 92.234375 54.917969 92.105469 L 55.183594 91.300781 L 54.484375 91.773438 C 44.046875 98.753906 40.078125 107.457031 42.695312 117.648438 C 46.195312 131.296875 60.53125 144.492188 71.9375 153.160156 C 84.734375 162.875 97.742188 169.71875 100.730469 169.980469 C 100.792969 169.984375 100.851562 169.988281 100.90625 169.988281 C 101.273438 169.988281 101.507812 169.875 101.609375 169.648438 C 101.796875 169.234375 101.4375 168.644531 100.417969 167.664062 C 97.769531 165.132812 96.585938 162.222656 96.898438 159.007812 C 97.914062 148.644531 114.054688 138.222656 114.214844 138.121094 L 114.992188 137.625 L 114.074219 137.589844 C 86.109375 136.496094 67.558594 129.605469 58.925781 117.101562 " fill-opacity="1" fill-rule="nonzero"/><path fill="#000000" d="M 103.136719 189.050781 L 100.878906 188.363281 C 100.683594 188.308594 81.222656 182.320312 62.792969 170.152344 C 45.828125 158.945312 26.285156 140.054688 29.546875 113.683594 L 29.675781 112.601562 L 29.027344 113.472656 C 28.851562 113.707031 11.632812 137.121094 21.300781 157.734375 C 29.9375 176.15625 56.683594 186.65625 100.78125 188.929688 L 103.136719 189.050781 " fill-opacity="1" fill-rule="nonzero"/><path fill="#000000" d="M 361.265625 111.308594 C 356.769531 99.421875 348.640625 87.828125 337.097656 76.867188 C 322.691406 63.179688 302.894531 50.425781 278.257812 38.96875 L 276.285156 38.046875 L 277.953125 39.445312 C 278.238281 39.6875 306.824219 63.816406 313.636719 79.722656 L 313.773438 80.03125 L 314.058594 79.855469 C 314.109375 79.820312 315.320312 79.050781 315.773438 77.078125 C 316.300781 74.78125 315.609375 71.925781 313.71875 68.558594 C 316.6875 70.789062 325.109375 77.488281 334.175781 88.105469 C 344.546875 100.246094 357.902344 120.148438 362.660156 146.003906 L 362.835938 146.972656 L 363.207031 146.0625 C 363.269531 145.917969 368.933594 131.589844 361.265625 111.308594 " fill-opacity="1" fill-rule="nonzero"/><path fill="#000000" d="M 277.992188 159.582031 C 278.308594 162.792969 277.121094 165.710938 274.476562 168.242188 C 273.453125 169.21875 273.097656 169.8125 273.28125 170.226562 C 273.382812 170.449219 273.621094 170.566406 273.984375 170.566406 C 274.042969 170.566406 274.101562 170.5625 274.160156 170.558594 C 277.152344 170.296875 290.15625 163.453125 302.949219 153.734375 C 314.363281 145.070312 328.695312 131.875 332.199219 118.226562 C 334.816406 108.035156 330.847656 99.332031 320.410156 92.347656 L 319.707031 91.878906 L 319.976562 92.679688 C 320.023438 92.8125 324.210938 105.742188 315.96875 117.679688 C 307.335938 130.179688 288.777344 137.074219 260.820312 138.164062 L 259.898438 138.203125 L 260.675781 138.695312 C 260.839844 138.796875 276.980469 149.214844 277.992188 159.582031 " fill-opacity="1" fill-rule="nonzero"/><path fill="#000000" d="M 345.214844 113.179688 L 345.347656 114.257812 C 348.605469 140.632812 329.066406 159.523438 312.101562 170.730469 C 293.671875 182.894531 274.210938 188.882812 274.015625 188.945312 L 271.757812 189.628906 L 274.113281 189.511719 C 318.214844 187.230469 344.953125 176.734375 353.59375 158.3125 C 363.261719 137.695312 346.042969 114.285156 345.867188 114.050781 L 345.214844 113.179688 " fill-opacity="1" fill-rule="nonzero"/><path fill="#000000" d="M 146.210938 278.121094 L 145.425781 277.289062 C 145.046875 276.882812 107.519531 236.75 113.191406 213.519531 C 118.109375 193.34375 117.6875 173.257812 112.1875 165.753906 C 110.65625 163.667969 108.773438 162.539062 106.582031 162.394531 L 104.035156 162.226562 L 106.480469 162.957031 C 106.488281 162.960938 107.277344 163.230469 108.085938 164.75 C 110.488281 169.253906 112.550781 183.199219 99.367188 226.054688 L 99.339844 226.136719 L 99.363281 226.21875 C 99.390625 226.316406 102.195312 236.339844 109.203125 247.636719 C 115.675781 258.074219 127.160156 271.769531 145.125 277.757812 L 146.210938 278.121094 " fill-opacity="1" fill-rule="nonzero"/><path fill="#000000" d="M 269.300781 162.957031 L 271.738281 162.226562 L 269.195312 162.394531 C 267.003906 162.539062 265.117188 163.667969 263.589844 165.753906 C 258.09375 173.257812 257.671875 193.34375 262.589844 213.519531 C 268.253906 236.75 230.734375 276.882812 230.355469 277.289062 L 229.570312 278.121094 L 230.65625 277.757812 C 248.621094 271.769531 260.105469 258.074219 266.574219 247.636719 C 273.585938 236.339844 276.390625 226.316406 276.417969 226.21875 L 276.441406 226.136719 L 276.414062 226.054688 C 258.378906 167.445312 269.152344 163.011719 269.300781 162.957031 " fill-opacity="1" fill-rule="nonzero"/><path fill="#000000" d="M 266.976562 160.339844 L 267.460938 160.035156 C 266.847656 158.871094 252.207031 131.613281 238.878906 132.628906 C 233.535156 133.03125 229.167969 137.964844 225.90625 147.289062 L 225.660156 147.980469 L 226.308594 147.640625 C 226.535156 147.523438 249.0625 136.070312 266.976562 160.339844 " fill-opacity="1" fill-rule="nonzero"/><path fill="#000000" d="M 107.949219 158.082031 C 118.285156 146.183594 129.027344 144.253906 136.210938 144.726562 C 144.011719 145.242188 149.441406 148.613281 149.496094 148.648438 L 150.117188 149.039062 L 149.929688 148.332031 C 147.414062 138.773438 143.453125 133.511719 138.160156 132.683594 C 124.925781 130.628906 108.195312 156.628906 107.488281 157.734375 L 107.949219 158.082031 " fill-opacity="1" fill-rule="nonzero"/><path fill="#000000" d="M 163.65625 274.613281 C 171.25 262.84375 177.664062 243.148438 165.089844 216.214844 L 164.5625 216.445312 C 164.609375 216.550781 168.941406 226.855469 164.039062 231.296875 C 160.261719 234.730469 149.742188 235.53125 121.125 219.832031 L 118.890625 218.605469 L 120.792969 220.296875 C 121.140625 220.605469 155.34375 251.34375 154.027344 275.609375 C 153.636719 282.796875 150.152344 288.785156 143.660156 293.402344 L 143.96875 293.890625 C 144.085938 293.828125 155.433594 287.363281 163.65625 274.613281 " fill-opacity="1" fill-rule="nonzero"/><path fill="#000000" d="M 221.28125 275.609375 C 219.960938 251.34375 254.167969 220.605469 254.515625 220.296875 L 256.417969 218.605469 L 254.1875 219.832031 C 225.570312 235.53125 215.050781 234.730469 211.265625 231.296875 C 206.367188 226.855469 210.703125 216.550781 210.746094 216.445312 L 210.21875 216.214844 C 197.648438 243.148438 204.058594 262.84375 211.652344 274.613281 C 219.875 287.363281 231.226562 293.828125 231.339844 293.890625 L 231.652344 293.402344 C 225.160156 288.785156 221.671875 282.796875 221.28125 275.609375 " fill-opacity="1" fill-rule="nonzero"/><path fill="#000000" d="M 151.351562 180.386719 C 171.445312 200.855469 177.757812 224.25 177.820312 224.484375 L 178.355469 226.527344 L 178.386719 224.414062 C 178.65625 206.136719 174.496094 200.09375 168.203125 190.949219 C 165.480469 186.996094 162.394531 182.511719 159.125 176.207031 C 148.574219 155.863281 171.359375 132.75 171.59375 132.515625 L 171.230469 132.074219 C 170.988281 132.234375 147.304688 148.378906 145.601562 165.171875 C 145.035156 170.796875 146.96875 175.914062 151.351562 180.386719 " fill-opacity="1" fill-rule="nonzero"/><path fill="#000000" d="M 208.152344 190.949219 C 201.863281 200.09375 197.703125 206.136719 197.972656 224.414062 L 198.003906 226.527344 L 198.539062 224.484375 C 198.601562 224.25 204.90625 200.859375 225.003906 180.386719 C 229.390625 175.914062 231.324219 170.796875 230.753906 165.171875 C 229.054688 148.378906 205.367188 132.234375 205.132812 132.074219 L 204.761719 132.515625 C 204.996094 132.75 227.78125 155.863281 217.234375 176.207031 C 213.960938 182.511719 210.878906 186.996094 208.152344 190.949219 " fill-opacity="1" fill-rule="nonzero"/><path fill="#000000" d="M 212.066406 286.808594 C 209.121094 284.480469 205.1875 285.152344 205.019531 285.179688 L 204.894531 285.203125 L 204.828125 285.316406 C 199.648438 293.683594 194.074219 297.902344 188.230469 297.785156 C 178.3125 297.628906 170.921875 284.96875 170.851562 284.84375 L 170.800781 284.757812 L 170.707031 284.714844 C 170.601562 284.675781 168.066406 283.664062 165.449219 284.960938 C 163.371094 285.992188 161.867188 288.175781 160.992188 291.449219 C 160.230469 294.28125 160.476562 296.742188 161.710938 298.765625 C 163.808594 302.1875 167.957031 303.113281 168.132812 303.152344 L 168.179688 303.160156 L 168.226562 303.15625 C 177.40625 302.140625 178.480469 305.414062 178.511719 305.488281 C 182.109375 313.230469 184.976562 313.558594 185.464844 313.546875 C 186.453125 313.851562 187.355469 313.992188 188.183594 313.992188 C 192.898438 313.992188 195.125 309.441406 196.816406 305.976562 C 198.800781 301.917969 204.929688 303.609375 204.996094 303.628906 L 205.070312 303.640625 C 205.273438 303.636719 209.972656 303.648438 212.90625 300.566406 C 214.542969 298.851562 215.285156 296.511719 215.113281 293.617188 C 214.933594 290.554688 213.910156 288.261719 212.066406 286.808594 " fill-opacity="1" fill-rule="nonzero"/><path fill="#000000" d="M 212.351562 318.46875 L 212.179688 318.390625 L 212.039062 318.519531 C 211.984375 318.5625 206.722656 323.203125 202.3125 321.773438 C 199.742188 320.941406 197.933594 318.207031 196.933594 313.648438 L 196.871094 313.34375 L 196.574219 313.429688 C 196.445312 313.472656 183.652344 317.199219 180.539062 313.078125 L 180.25 312.691406 L 180.046875 313.132812 C 180.007812 313.214844 176.210938 321.421875 171.011719 322.089844 C 168.753906 322.375 166.523438 321.1875 164.378906 318.550781 L 164.054688 318.15625 L 163.882812 318.636719 C 163.722656 319.089844 159.953125 329.824219 163.527344 333.359375 C 164.273438 334.097656 165.277344 334.464844 166.53125 334.464844 C 167.5625 334.464844 168.757812 334.214844 170.121094 333.710938 C 174.929688 331.941406 176.667969 330.886719 177.707031 330.257812 C 179.140625 329.386719 179.140625 329.386719 184.921875 329.402344 C 185.769531 329.402344 186.734375 329.40625 187.851562 329.40625 C 201.074219 329.40625 201.652344 331.617188 201.65625 331.617188 L 201.65625 331.785156 L 201.800781 331.867188 C 202.054688 332.007812 208.003906 335.273438 211.601562 333.386719 C 213.078125 332.613281 213.9375 331.085938 214.152344 328.859375 C 215.027344 319.816406 212.460938 318.523438 212.351562 318.46875 " fill-opacity="1" fill-rule="nonzero"/><path fill="#000000" d="M 253.535156 178.085938 C 253.347656 178.078125 234.496094 177.191406 230.65625 194.199219 C 226.898438 210.863281 220 216.894531 219.929688 216.957031 L 218.707031 217.996094 L 220.214844 217.449219 C 220.988281 217.164062 239.226562 210.480469 242.890625 205.734375 C 243.425781 205.039062 244.050781 204.320312 244.710938 203.558594 C 248.632812 199.03125 254 192.835938 253.808594 178.371094 L 253.804688 178.101562 L 253.535156 178.085938 " fill-opacity="1" fill-rule="nonzero"/><path fill="#000000" d="M 144.140625 194.199219 C 140.300781 177.1875 121.453125 178.078125 121.261719 178.085938 L 120.992188 178.101562 L 120.988281 178.371094 C 120.796875 192.835938 126.167969 199.03125 130.085938 203.558594 C 130.746094 204.320312 131.371094 205.039062 131.90625 205.734375 C 135.574219 210.480469 153.8125 217.164062 154.585938 217.449219 L 156.097656 218 L 154.871094 216.957031 C 154.800781 216.894531 147.910156 210.886719 144.140625 194.199219 " fill-opacity="1" fill-rule="nonzero"/><path fill="#000000" d="M 218.566406 289.601562 L 217.976562 289.546875 L 218.296875 290.039062 C 218.429688 290.25 230.632812 309.753906 220.050781 327.730469 C 219.019531 329.359375 218.339844 330.347656 218.304688 330.390625 L 218.769531 330.726562 C 219.316406 329.984375 219.820312 329.226562 220.277344 328.472656 C 224.199219 322.378906 234.027344 305.554688 229.664062 296.042969 C 227.953125 292.3125 224.21875 290.148438 218.566406 289.601562 " fill-opacity="1" fill-rule="nonzero"/><path fill="#000000" d="M 147.164062 296.332031 C 142.800781 305.839844 152.628906 322.667969 156.550781 328.765625 C 157.011719 329.515625 157.515625 330.269531 158.054688 331.015625 L 158.527344 330.683594 C 158.492188 330.636719 157.808594 329.652344 156.78125 328.019531 C 146.195312 310.039062 158.402344 290.535156 158.535156 290.332031 L 158.855469 289.832031 L 158.265625 289.890625 C 152.613281 290.4375 148.878906 292.605469 147.164062 296.332031 " fill-opacity="1" fill-rule="nonzero"/></svg>