<svg xmlns="http://www.w3.org/2000/svg" xmlns:xlink="http://www.w3.org/1999/xlink" width="500" zoomAndPan="magnify" viewBox="0 0 375 374.999991" height="500" preserveAspectRatio="xMidYMid meet" version="1.0"><defs><clipPath id="e57f6496a7"><path d="M 33.34375 53.703125 L 322.84375 53.703125 L 322.84375 355.953125 L 33.34375 355.953125 Z M 33.34375 53.703125 " clip-rule="nonzero"/></clipPath><clipPath id="28d8cd96b6"><path d="M 72.492188 66.792969 L 271.242188 66.792969 L 271.242188 282.792969 L 72.492188 282.792969 Z M 72.492188 66.792969 " clip-rule="nonzero"/></clipPath></defs><path fill="#fbfbf9" d="M 178.167969 58.941406 C 131.742188 58.941406 86.707031 64.855469 43.742188 75.914062 C 41.082031 76.601562 39.40625 79.25 39.917969 81.945312 C 59.253906 182.742188 106.71875 273.542969 173.835938 345.851562 C 175.910156 348.089844 179.449219 348.09375 181.53125 345.863281 C 248.929688 273.617188 296.65625 182.785156 316.210938 81.898438 C 316.734375 79.195312 315.058594 76.542969 312.386719 75.855469 C 269.480469 64.832031 224.511719 58.941406 178.167969 58.941406 Z M 178.167969 58.941406 " fill-opacity="1" fill-rule="nonzero"/><g clip-path="url(#e57f6496a7)"><path fill="#000000" d="M 318.464844 72.03125 C 321.105469 72.738281 322.765625 75.355469 322.269531 78.042969 C 303.160156 181.652344 254.476562 276.925781 181.464844 353.558594 C 179.394531 355.730469 175.933594 355.722656 173.875 353.546875 C 101.15625 276.8125 52.742188 181.5625 33.863281 78.085938 C 33.375 75.402344 35.027344 72.792969 37.664062 72.085938 C 83.347656 59.886719 130.621094 53.703125 178.167969 53.703125 C 225.636719 53.703125 272.84375 59.871094 318.464844 72.03125 Z M 181.574219 338.09375 C 246.675781 266.832031 290.902344 180.03125 310.082031 85.851562 C 310.644531 83.085938 308.933594 80.371094 306.1875 79.695312 C 264.433594 69.398438 221.410156 64.175781 178.167969 64.175781 C 134.84375 64.175781 91.753906 69.410156 49.925781 79.75 C 47.1875 80.425781 45.472656 83.132812 46.03125 85.894531 C 65 179.957031 108.976562 266.738281 173.808594 338.082031 C 175.886719 340.371094 179.488281 340.378906 181.574219 338.09375 Z M 181.574219 338.09375 " fill-opacity="1" fill-rule="nonzero"/></g><g clip-path="url(#28d8cd96b6)"><path fill="#000000" d="M 271.1875 128.375 L 271.1875 132.941406 C 270.636719 139.773438 268.367188 145.90625 264.371094 151.339844 C 264.335938 151.386719 264.289062 151.402344 264.234375 151.382812 C 264.175781 151.363281 264.148438 151.324219 264.152344 151.261719 C 264.550781 144.625 264 138.640625 260.394531 132.898438 C 259.605469 131.644531 259 131.582031 257.601562 131.765625 C 254.15625 132.222656 251.589844 132.675781 249.90625 133.125 C 246.039062 134.160156 242.238281 135.402344 238.503906 136.847656 C 235.382812 138.054688 232.011719 138.878906 228.394531 139.320312 C 227.441406 139.4375 226.609375 139.648438 225.894531 139.949219 C 214.09375 144.925781 204.53125 155.742188 204.121094 169.050781 C 204.0625 170.96875 204.101562 172.472656 204.238281 173.566406 C 204.996094 179.539062 207.101562 184.984375 210.554688 189.898438 C 214.375 195.328125 219.246094 199.8125 224.050781 204.332031 C 233.558594 213.277344 240.707031 223.382812 244.960938 235.707031 C 245.066406 236.015625 245.003906 236.285156 244.777344 236.519531 L 234.53125 247.019531 C 234.289062 247.265625 234.191406 247.21875 234.238281 246.875 C 234.25 246.769531 234.253906 246.601562 234.242188 246.367188 C 233.378906 227.953125 225.699219 213.667969 211.195312 203.511719 C 207.546875 200.957031 202.933594 198.5 198.71875 196.230469 C 188.582031 190.769531 180.714844 184.257812 177.65625 172.683594 C 177.621094 172.558594 177.601562 172.558594 177.597656 172.6875 C 177.484375 174.679688 178.058594 176.960938 178.496094 178.894531 C 180.042969 185.691406 183.703125 191.585938 189.097656 196.027344 C 193.414062 199.589844 197.230469 201.609375 203.113281 204.992188 C 207.195312 207.339844 210.90625 210.175781 214.242188 213.503906 C 223.921875 223.132812 227.539062 236.132812 227.328125 249.515625 C 227.308594 250.941406 226.980469 252.765625 227.023438 254.441406 C 227.027344 254.5625 226.988281 254.667969 226.902344 254.753906 L 200.066406 282.792969 L 199.933594 282.792969 L 88.410156 212.863281 C 88.292969 212.789062 88.285156 212.699219 88.378906 212.597656 C 89.207031 211.746094 90.375 210.585938 91.890625 209.117188 C 105.816406 195.554688 117.6875 180.046875 125.226562 162.457031 C 125.980469 160.691406 125.808594 160.597656 124.707031 162.167969 C 124.054688 163.09375 123.253906 164.476562 122.488281 165.488281 C 115.824219 174.308594 107.296875 180.695312 96.910156 184.644531 C 91.609375 186.660156 86.140625 187.945312 80.492188 188.503906 C 77.929688 188.757812 75.320312 188.929688 72.667969 189.023438 C 72.609375 189.023438 72.570312 188.996094 72.554688 188.9375 C 72.539062 188.875 72.5625 188.832031 72.617188 188.808594 C 72.875 188.695312 73.0625 188.492188 73.308594 188.390625 C 96.636719 178.789062 116.042969 162.238281 126.128906 138.769531 C 126.460938 137.992188 126.664062 137.429688 126.738281 137.078125 C 126.894531 136.328125 126.78125 136.285156 126.394531 136.941406 C 124.6875 139.855469 122.679688 142.546875 120.367188 145.011719 C 114.664062 151.089844 107.65625 154.585938 99.347656 155.492188 C 99.238281 155.503906 99.214844 155.464844 99.277344 155.371094 C 111.007812 138.535156 125.625 124.527344 144.042969 115.585938 C 144.515625 115.355469 144.488281 115.25 143.960938 115.261719 C 143.417969 115.273438 142.769531 115.210938 142.1875 115.304688 C 140.363281 115.601562 138.570312 115.496094 136.765625 115.769531 C 136.363281 115.828125 135.835938 115.894531 135.1875 115.964844 C 127.886719 116.75 120.5 118.558594 113.027344 121.386719 C 112.816406 121.464844 112.777344 121.410156 112.898438 121.226562 C 113.253906 120.6875 113.785156 119.957031 114.492188 119.03125 C 124.726562 105.621094 138.121094 97.191406 154.679688 93.742188 C 154.734375 93.730469 154.769531 93.695312 154.777344 93.636719 C 154.785156 93.578125 154.761719 93.535156 154.710938 93.507812 C 149.984375 91.144531 144.996094 89.65625 139.738281 89.039062 C 137.082031 88.726562 134.65625 88.597656 132.460938 88.652344 C 131.566406 88.675781 131.546875 88.554688 132.402344 88.289062 C 136.859375 86.914062 141.570312 85.855469 146.292969 85.402344 C 147.386719 85.300781 148.417969 85.066406 149.484375 85.046875 C 152.847656 84.972656 156.207031 84.976562 159.566406 85.0625 C 160.746094 85.09375 161.960938 85.285156 163.3125 85.429688 C 171.773438 86.332031 179.859375 88.59375 187.566406 92.207031 C 187.621094 92.238281 187.640625 92.28125 187.621094 92.339844 C 187.605469 92.398438 187.566406 92.425781 187.503906 92.417969 C 180.863281 91.4375 174.203125 91.355469 167.53125 92.171875 C 166.566406 92.292969 166.558594 92.46875 167.503906 92.695312 C 171.332031 93.625 175.011719 94.953125 178.542969 96.679688 C 179.523438 97.15625 179.476562 97.308594 178.398438 97.140625 C 177.261719 96.960938 175.859375 96.972656 174.191406 97.175781 C 173.429688 97.265625 172.667969 97.328125 171.898438 97.355469 C 170.992188 97.394531 170.230469 97.472656 169.625 97.589844 C 160.558594 99.320312 152.339844 102.964844 144.96875 108.523438 C 144.292969 109.03125 143.226562 109.660156 142.511719 110.453125 C 142.324219 110.65625 142.359375 110.710938 142.621094 110.609375 C 154.421875 106.03125 166.347656 103.753906 178.386719 103.773438 C 192.335938 103.796875 206.105469 105.257812 219.695312 108.160156 C 219.863281 108.195312 220.003906 108.148438 220.113281 108.019531 L 226.996094 100.296875 C 227.09375 100.1875 227.085938 100.085938 226.96875 99.996094 C 220.394531 95.097656 213.175781 91.707031 205.308594 89.824219 C 200.253906 88.613281 193.203125 87.933594 188.820312 87.226562 C 173.292969 84.710938 159.859375 77.972656 148.511719 67.011719 C 148.464844 66.964844 148.460938 66.917969 148.496094 66.863281 C 148.53125 66.808594 148.578125 66.792969 148.640625 66.816406 C 159.851562 71.320312 171.402344 74.753906 183.296875 77.121094 C 188.273438 78.109375 194.613281 79.1875 202.3125 80.363281 C 214.757812 82.257812 225.644531 87.394531 234.964844 95.773438 C 235.050781 95.847656 235.058594 95.929688 234.988281 96.023438 C 231.863281 100.03125 228.773438 104.03125 225.71875 108.019531 C 225.296875 108.570312 224.800781 109.027344 224.230469 109.386719 C 218.632812 112.910156 212.945312 115.996094 207.164062 118.644531 C 203.148438 120.488281 197.769531 122.328125 193.527344 121.824219 C 189.226562 121.308594 186.113281 118.8125 182.496094 116.679688 C 180.085938 115.261719 177.222656 114.507812 173.914062 114.417969 C 165.183594 114.191406 155.722656 118.589844 149.390625 124.152344 C 140.019531 132.390625 134.039062 142.660156 131.449219 154.953125 C 131.242188 155.929688 131.101562 156.9375 131.027344 157.980469 C 131.023438 158.023438 131.039062 158.046875 131.082031 158.054688 C 131.121094 158.0625 131.144531 158.046875 131.15625 158.007812 C 133.066406 153.082031 134.839844 149.113281 138.410156 144.566406 C 140.925781 141.363281 143.933594 138.734375 147.429688 136.683594 C 147.46875 136.664062 147.5 136.671875 147.527344 136.703125 C 147.554688 136.734375 147.554688 136.769531 147.53125 136.804688 C 146.242188 138.453125 144.867188 140.191406 143.828125 141.90625 C 137.4375 152.445312 136.132812 165.164062 138.566406 177.15625 C 138.574219 177.199219 138.601562 177.226562 138.644531 177.230469 C 138.6875 177.238281 138.71875 177.222656 138.738281 177.183594 C 139.085938 176.492188 139.027344 175.601562 139.117188 175.0625 C 139.417969 173.289062 139.863281 171.210938 140.449219 168.828125 C 142.03125 162.4375 144.921875 156.625 149.117188 151.390625 C 150.105469 150.15625 150.242188 150.242188 149.527344 151.65625 C 147.574219 155.511719 146.421875 159.914062 146.070312 164.871094 C 145.59375 171.492188 146.40625 178.164062 148.503906 184.890625 C 148.644531 185.34375 148.785156 185.6875 148.925781 185.929688 C 149.082031 186.195312 149.140625 186.175781 149.113281 185.867188 C 147.308594 168.074219 154.90625 151.652344 170.230469 142.578125 C 178.894531 137.445312 189.484375 135.496094 199.503906 136.398438 C 200.269531 136.46875 200.910156 136.59375 201.429688 136.769531 C 201.746094 136.875 201.746094 136.984375 201.429688 137.097656 C 197.71875 138.40625 194.128906 139.554688 190.65625 140.554688 C 190.191406 140.6875 189.75 140.875 189.335938 141.121094 C 189.207031 141.195312 189.214844 141.234375 189.367188 141.238281 C 190.519531 141.277344 191.332031 141.285156 191.796875 141.257812 C 201.828125 140.609375 211.375 138.15625 220.4375 133.90625 C 220.972656 133.65625 221.53125 133.515625 222.121094 133.484375 C 226.214844 133.28125 230.273438 132.800781 234.300781 132.042969 C 235.6875 131.78125 237.019531 131.425781 238.300781 130.980469 C 238.355469 130.960938 238.378906 130.921875 238.367188 130.863281 C 238.359375 130.804688 238.324219 130.777344 238.265625 130.773438 C 234.960938 130.671875 231.710938 130.746094 228.417969 130.554688 C 224.710938 130.34375 221.457031 130.332031 217.304688 130.09375 C 214.800781 129.949219 212.320312 130.058594 209.824219 129.855469 C 206.664062 129.597656 203.472656 129.671875 200.359375 129.449219 C 198.449219 129.308594 196.460938 129.449219 194.570312 129.203125 C 194.453125 129.183594 194.386719 129.117188 194.363281 129 C 194.34375 128.882812 194.386719 128.796875 194.492188 128.742188 C 197.671875 127.066406 201.136719 126.496094 204.667969 126.050781 C 206.09375 125.871094 207.800781 125.78125 209.789062 125.789062 C 224.234375 125.835938 238.792969 125.800781 253.460938 125.683594 C 254.304688 125.675781 254.324219 125.546875 253.519531 125.289062 C 252.609375 125 251.710938 125.140625 250.769531 125.007812 C 249.507812 124.828125 248.863281 124.734375 248.832031 124.730469 C 242.515625 124.117188 236.199219 123.503906 229.886719 122.886719 C 229.734375 122.875 229.707031 122.804688 229.804688 122.683594 C 233.949219 117.519531 237.976562 112.257812 241.878906 106.894531 C 243.089844 105.230469 242.960938 105.117188 241.488281 106.558594 C 236.050781 111.875 231 117.574219 225.515625 122.871094 C 225.460938 122.921875 225.40625 122.921875 225.347656 122.871094 C 225.289062 122.824219 225.285156 122.765625 225.328125 122.703125 L 235.980469 107.84375 C 236.027344 107.777344 236.03125 107.710938 235.996094 107.636719 C 235.957031 107.566406 235.898438 107.53125 235.816406 107.53125 L 229.261719 107.546875 C 229.125 107.546875 229.097656 107.492188 229.183594 107.382812 L 235.382812 99.328125 C 235.460938 99.226562 235.5625 99.175781 235.691406 99.179688 C 242.214844 99.253906 248.359375 100.144531 254.136719 103.273438 C 262.960938 108.046875 268.46875 115.308594 270.664062 125.054688 C 270.875 125.992188 270.847656 127.261719 271.1875 128.375 Z M 199.089844 118.523438 C 201.914062 117.203125 203.996094 114.15625 203.914062 110.929688 C 203.910156 110.785156 203.832031 110.710938 203.6875 110.710938 L 200.625 110.695312 C 200.480469 110.695312 200.402344 110.769531 200.390625 110.914062 C 199.875 117.152344 191.035156 117.148438 190.167969 110.933594 C 190.148438 110.796875 190.066406 110.726562 189.929688 110.726562 L 186.988281 110.6875 C 186.832031 110.683594 186.746094 110.761719 186.730469 110.917969 C 186.632812 111.890625 186.757812 112.828125 187.105469 113.734375 C 188.992188 118.667969 194.324219 120.75 199.089844 118.523438 Z M 163.925781 186.644531 C 163.21875 184.691406 162.664062 182.691406 162.265625 180.636719 C 162.265625 180.621094 162.257812 180.613281 162.242188 180.617188 C 162.226562 180.617188 162.21875 180.625 162.21875 180.640625 C 162.152344 181.089844 162.128906 181.539062 162.152344 181.996094 C 162.457031 188.960938 164.496094 195.238281 168.261719 200.828125 C 173.414062 208.46875 181.054688 212.988281 188.695312 217.683594 C 200.835938 225.140625 209.640625 236.117188 212.257812 250.394531 C 212.441406 251.375 212.597656 252.183594 212.730469 252.8125 C 212.859375 253.453125 212.941406 253.449219 212.96875 252.796875 C 213.539062 240.277344 210.082031 229.113281 201.171875 220.1875 C 197.589844 216.589844 194.046875 213.789062 190.546875 211.777344 C 179.441406 205.390625 168.546875 199.367188 163.925781 186.644531 Z M 209.453125 258.40625 C 208.609375 256.476562 207.636719 254.621094 206.535156 252.828125 C 198.941406 240.492188 188.011719 232.414062 174.511719 227.371094 C 171.917969 226.402344 168.359375 225.1875 163.835938 223.722656 C 145.054688 217.648438 130.835938 204.765625 124.773438 185.640625 C 124.757812 185.585938 124.71875 185.566406 124.664062 185.578125 C 124.609375 185.59375 124.585938 185.628906 124.589844 185.683594 C 124.632812 185.992188 124.691406 186.339844 124.761719 186.726562 C 125.386719 190.207031 126.253906 193.625 127.367188 196.980469 C 130.757812 207.230469 136.753906 215.390625 145.351562 221.460938 C 150.578125 225.152344 156.707031 227.953125 162.804688 229.988281 C 173.699219 233.625 182.109375 236.519531 190.5625 241.808594 C 198.28125 246.632812 204.78125 252.886719 210.058594 260.574219 C 210.089844 260.625 210.132812 260.640625 210.191406 260.617188 C 210.246094 260.597656 210.269531 260.554688 210.257812 260.496094 C 210.152344 259.726562 209.71875 259.011719 209.453125 258.40625 Z M 106.574219 209.8125 L 118.863281 193.546875 C 118.917969 193.476562 118.910156 193.414062 118.847656 193.359375 C 118.78125 193.300781 118.71875 193.300781 118.660156 193.363281 L 98.855469 211.769531 C 98.785156 211.835938 98.753906 211.917969 98.761719 212.011719 C 98.773438 212.105469 98.816406 212.179688 98.898438 212.230469 C 117.667969 223.800781 136.417969 235.414062 155.15625 247.066406 C 156.058594 247.628906 156.753906 248.042969 157.238281 248.300781 C 158.335938 248.886719 158.394531 248.804688 157.402344 248.042969 C 140.628906 235.207031 123.582031 222.699219 106.613281 210.105469 C 106.503906 210.023438 106.488281 209.925781 106.574219 209.8125 Z M 106.574219 209.8125 " fill-opacity="1" fill-rule="nonzero"/></g></svg>