<svg xmlns="http://www.w3.org/2000/svg" xmlns:xlink="http://www.w3.org/1999/xlink" width="500" zoomAndPan="magnify" viewBox="0 0 375 374.999991" height="500" preserveAspectRatio="xMidYMid meet" version="1.0"><defs><clipPath id="e1a7bee32b"><path d="M 33.34375 53.703125 L 322.84375 53.703125 L 322.84375 355.953125 L 33.34375 355.953125 Z M 33.34375 53.703125 " clip-rule="nonzero"/></clipPath><clipPath id="190791de19"><path d="M 87 98.207031 L 134 98.207031 L 134 154 L 87 154 Z M 87 98.207031 " clip-rule="nonzero"/></clipPath><clipPath id="bee2c10d56"><path d="M 222 98.207031 L 269 98.207031 L 269 154 L 222 154 Z M 222 98.207031 " clip-rule="nonzero"/></clipPath><clipPath id="e7b5f580d0"><path d="M 165 237 L 192 237 L 192 248.957031 L 165 248.957031 Z M 165 237 " clip-rule="nonzero"/></clipPath></defs><path fill="#fbfbf9" d="M 178.167969 58.941406 C 131.742188 58.941406 86.707031 64.855469 43.742188 75.914062 C 41.082031 76.601562 39.40625 79.25 39.917969 81.945312 C 59.253906 182.742188 106.71875 273.542969 173.835938 345.851562 C 175.910156 348.089844 179.449219 348.09375 181.53125 345.863281 C 248.929688 273.617188 296.65625 182.785156 316.210938 81.898438 C 316.734375 79.195312 315.058594 76.542969 312.386719 75.855469 C 269.480469 64.832031 224.511719 58.941406 178.167969 58.941406 Z M 178.167969 58.941406 " fill-opacity="1" fill-rule="nonzero"/><g clip-path="url(#e1a7bee32b)"><path fill="#0c120d" d="M 318.464844 72.03125 C 321.105469 72.738281 322.765625 75.355469 322.269531 78.042969 C 303.160156 181.652344 254.476562 276.925781 181.464844 353.558594 C 179.394531 355.730469 175.933594 355.722656 173.875 353.546875 C 101.15625 276.8125 52.742188 181.5625 33.863281 78.085938 C 33.375 75.402344 35.027344 72.792969 37.664062 72.085938 C 83.347656 59.886719 130.621094 53.703125 178.167969 53.703125 C 225.636719 53.703125 272.84375 59.871094 318.464844 72.03125 Z M 181.574219 338.09375 C 246.675781 266.832031 290.902344 180.03125 310.082031 85.851562 C 310.644531 83.085938 308.933594 80.371094 306.1875 79.695312 C 264.433594 69.398438 221.410156 64.175781 178.167969 64.175781 C 134.84375 64.175781 91.753906 69.410156 49.925781 79.75 C 47.1875 80.425781 45.472656 83.132812 46.03125 85.894531 C 65 179.957031 108.976562 266.738281 173.808594 338.082031 C 175.886719 340.371094 179.488281 340.378906 181.574219 338.09375 Z M 181.574219 338.09375 " fill-opacity="1" fill-rule="nonzero"/></g><g clip-path="url(#190791de19)"><path fill="#000000" d="M 114.09375 113.636719 C 113.136719 115.339844 112.785156 116.785156 113.054688 117.949219 C 113.285156 118.945312 113.894531 119.335938 113.921875 119.355469 L 114.066406 119.441406 L 114.132812 119.289062 C 117.582031 111.234375 132.054688 99.019531 132.199219 98.898438 L 133.042969 98.191406 L 132.042969 98.652344 C 119.574219 104.457031 109.550781 110.914062 102.257812 117.84375 C 96.414062 123.390625 92.300781 129.257812 90.023438 135.277344 C 86.140625 145.542969 89.011719 152.796875 89.039062 152.871094 L 89.230469 153.332031 L 89.320312 152.839844 C 91.726562 139.75 98.488281 129.675781 103.738281 123.53125 C 108.328125 118.15625 112.589844 114.765625 114.09375 113.636719 " fill-opacity="1" fill-rule="nonzero"/></g><path fill="#000000" d="M 112.953125 138.5 C 108.78125 132.460938 110.902344 125.914062 110.925781 125.847656 L 111.058594 125.441406 L 110.707031 125.679688 C 105.421875 129.214844 103.414062 133.617188 104.738281 138.777344 C 106.511719 145.6875 113.769531 152.367188 119.542969 156.753906 C 126.019531 161.671875 132.605469 165.136719 134.117188 165.269531 C 134.148438 165.269531 134.179688 165.273438 134.207031 165.273438 C 134.390625 165.273438 134.511719 165.214844 134.5625 165.101562 C 134.65625 164.890625 134.476562 164.59375 133.957031 164.097656 C 132.617188 162.816406 132.019531 161.339844 132.179688 159.714844 C 132.691406 154.46875 140.859375 149.191406 140.945312 149.140625 L 141.335938 148.890625 L 140.871094 148.871094 C 126.714844 148.320312 117.324219 144.832031 112.953125 138.5 " fill-opacity="1" fill-rule="nonzero"/><path fill="#000000" d="M 135.335938 174.921875 L 134.191406 174.574219 C 134.09375 174.546875 124.242188 171.515625 114.914062 165.355469 C 106.324219 159.683594 96.433594 150.121094 98.082031 136.769531 L 98.148438 136.222656 L 97.820312 136.664062 C 97.730469 136.78125 89.015625 148.636719 93.910156 159.070312 C 98.28125 168.394531 111.820312 173.710938 134.140625 174.863281 L 135.335938 174.921875 " fill-opacity="1" fill-rule="nonzero"/><g clip-path="url(#bee2c10d56)"><path fill="#000000" d="M 266.003906 135.570312 C 263.730469 129.550781 259.613281 123.683594 253.769531 118.132812 C 246.476562 111.203125 236.457031 104.75 223.984375 98.949219 L 222.984375 98.480469 L 223.832031 99.191406 C 223.976562 99.3125 238.445312 111.527344 241.894531 119.578125 L 241.960938 119.734375 L 242.109375 119.644531 C 242.132812 119.628906 242.746094 119.238281 242.976562 118.238281 C 243.242188 117.078125 242.890625 115.632812 241.9375 113.925781 C 243.4375 115.054688 247.703125 118.445312 252.292969 123.820312 C 257.539062 129.96875 264.300781 140.042969 266.710938 153.132812 L 266.800781 153.625 L 266.988281 153.160156 C 267.019531 153.089844 269.886719 145.835938 266.003906 135.570312 " fill-opacity="1" fill-rule="nonzero"/></g><path fill="#000000" d="M 223.851562 160.007812 C 224.011719 161.632812 223.410156 163.109375 222.070312 164.390625 C 221.550781 164.882812 221.371094 165.183594 221.464844 165.394531 C 221.515625 165.507812 221.636719 165.566406 221.820312 165.566406 C 221.851562 165.566406 221.878906 165.5625 221.910156 165.5625 C 223.425781 165.429688 230.007812 161.964844 236.484375 157.046875 C 242.261719 152.660156 249.519531 145.980469 251.289062 139.070312 C 252.613281 133.910156 250.605469 129.503906 245.324219 125.972656 L 244.96875 125.734375 L 245.105469 126.140625 C 245.125 126.203125 247.246094 132.75 243.074219 138.792969 C 238.703125 145.121094 229.308594 148.609375 215.15625 149.164062 L 214.691406 149.183594 L 215.085938 149.433594 C 215.167969 149.484375 223.335938 154.757812 223.851562 160.007812 " fill-opacity="1" fill-rule="nonzero"/><path fill="#000000" d="M 257.878906 136.515625 L 257.945312 137.0625 C 259.597656 150.414062 249.703125 159.976562 241.117188 165.648438 C 231.785156 171.808594 221.9375 174.839844 221.835938 174.871094 L 220.695312 175.214844 L 221.886719 175.15625 C 244.210938 174.003906 257.746094 168.6875 262.121094 159.363281 C 267.015625 148.925781 258.296875 137.074219 258.210938 136.957031 L 257.878906 136.515625 " fill-opacity="1" fill-rule="nonzero"/><path fill="#000000" d="M 157.140625 220.011719 L 156.742188 219.589844 C 156.550781 219.386719 137.554688 199.070312 140.425781 187.308594 C 142.914062 177.09375 142.703125 166.925781 139.917969 163.128906 C 139.144531 162.074219 138.1875 161.503906 137.078125 161.429688 L 135.789062 161.34375 L 137.027344 161.714844 C 137.03125 161.714844 137.429688 161.851562 137.839844 162.621094 C 139.054688 164.902344 140.101562 171.960938 133.425781 193.65625 L 133.414062 193.695312 L 133.425781 193.738281 C 133.4375 193.785156 134.859375 198.863281 138.40625 204.578125 C 141.683594 209.863281 147.496094 216.796875 156.589844 219.828125 L 157.140625 220.011719 " fill-opacity="1" fill-rule="nonzero"/><path fill="#000000" d="M 219.453125 161.714844 L 220.683594 161.34375 L 219.398438 161.429688 C 218.289062 161.503906 217.332031 162.074219 216.558594 163.128906 C 213.777344 166.925781 213.5625 177.09375 216.054688 187.308594 C 218.921875 199.070312 199.925781 219.386719 199.734375 219.589844 L 199.335938 220.011719 L 199.886719 219.828125 C 208.980469 216.796875 214.796875 209.863281 218.070312 204.578125 C 221.617188 198.863281 223.039062 193.785156 223.054688 193.738281 L 223.0625 193.695312 L 223.050781 193.65625 C 213.921875 163.984375 219.375 161.742188 219.453125 161.714844 " fill-opacity="1" fill-rule="nonzero"/><path fill="#000000" d="M 218.273438 160.390625 L 218.519531 160.234375 C 218.210938 159.644531 210.796875 145.847656 204.050781 146.359375 C 201.34375 146.566406 199.132812 149.0625 197.480469 153.78125 L 197.359375 154.132812 L 197.6875 153.960938 C 197.800781 153.902344 209.203125 148.105469 218.273438 160.390625 " fill-opacity="1" fill-rule="nonzero"/><path fill="#000000" d="M 137.773438 159.246094 C 143.003906 153.222656 148.441406 152.246094 152.078125 152.484375 C 156.027344 152.746094 158.777344 154.453125 158.804688 154.46875 L 159.117188 154.667969 L 159.023438 154.3125 C 157.75 149.472656 155.742188 146.808594 153.0625 146.390625 C 146.363281 145.347656 137.894531 158.511719 137.539062 159.070312 L 137.773438 159.246094 " fill-opacity="1" fill-rule="nonzero"/><path fill="#000000" d="M 165.972656 218.234375 C 169.816406 212.277344 173.0625 202.308594 166.699219 188.671875 L 166.429688 188.792969 C 166.453125 188.84375 168.644531 194.058594 166.164062 196.308594 C 164.253906 198.046875 158.925781 198.453125 144.441406 190.503906 L 143.308594 189.882812 L 144.273438 190.742188 C 144.449219 190.898438 161.765625 206.457031 161.097656 218.742188 C 160.898438 222.378906 159.132812 225.410156 155.847656 227.746094 L 156.007812 227.992188 C 156.0625 227.964844 161.808594 224.691406 165.972656 218.234375 " fill-opacity="1" fill-rule="nonzero"/><path fill="#000000" d="M 195.144531 218.742188 C 194.472656 206.457031 211.789062 190.898438 211.964844 190.742188 L 212.929688 189.882812 L 211.800781 190.503906 C 197.3125 198.453125 191.988281 198.046875 190.074219 196.308594 C 187.59375 194.058594 189.785156 188.84375 189.808594 188.792969 L 189.542969 188.671875 C 183.179688 202.308594 186.425781 212.277344 190.265625 218.234375 C 194.429688 224.691406 200.175781 227.964844 200.234375 227.992188 L 200.390625 227.746094 C 197.105469 225.410156 195.339844 222.378906 195.144531 218.742188 " fill-opacity="1" fill-rule="nonzero"/><path fill="#000000" d="M 159.742188 170.535156 C 169.914062 180.898438 173.109375 192.742188 173.140625 192.859375 L 173.410156 193.894531 L 173.429688 192.824219 C 173.566406 183.570312 171.460938 180.511719 168.273438 175.882812 C 166.894531 173.882812 165.332031 171.613281 163.675781 168.421875 C 158.335938 158.121094 169.871094 146.421875 169.988281 146.304688 L 169.804688 146.082031 C 169.683594 146.160156 157.691406 154.332031 156.832031 162.835938 C 156.542969 165.683594 157.523438 168.273438 159.742188 170.535156 " fill-opacity="1" fill-rule="nonzero"/><path fill="#000000" d="M 188.496094 175.882812 C 185.3125 180.511719 183.207031 183.570312 183.34375 192.824219 L 183.359375 193.894531 L 183.628906 192.859375 C 183.660156 192.742188 186.851562 180.902344 197.027344 170.535156 C 199.246094 168.273438 200.226562 165.683594 199.9375 162.835938 C 199.078125 154.332031 187.085938 146.160156 186.964844 146.082031 L 186.78125 146.304688 C 186.898438 146.421875 198.433594 158.121094 193.09375 168.421875 C 191.4375 171.613281 189.875 173.882812 188.496094 175.882812 " fill-opacity="1" fill-rule="nonzero"/><path fill="#000000" d="M 190.476562 224.410156 C 188.984375 223.230469 186.996094 223.570312 186.910156 223.585938 L 186.847656 223.597656 L 186.8125 223.65625 C 184.191406 227.890625 181.367188 230.023438 178.410156 229.96875 C 173.390625 229.886719 169.648438 223.480469 169.613281 223.414062 L 169.585938 223.371094 L 169.539062 223.351562 C 169.488281 223.328125 168.203125 222.816406 166.878906 223.472656 C 165.824219 223.996094 165.066406 225.101562 164.621094 226.757812 C 164.238281 228.191406 164.363281 229.4375 164.988281 230.460938 C 166.046875 232.195312 168.148438 232.664062 168.238281 232.683594 L 168.261719 232.6875 L 168.285156 232.6875 C 172.929688 232.171875 173.476562 233.828125 173.492188 233.867188 C 175.3125 237.785156 176.765625 237.949219 177.011719 237.945312 C 177.511719 238.101562 177.96875 238.171875 178.386719 238.171875 C 180.773438 238.171875 181.902344 235.867188 182.757812 234.113281 C 183.761719 232.058594 186.867188 232.914062 186.898438 232.921875 L 186.9375 232.929688 C 187.039062 232.929688 189.417969 232.933594 190.902344 231.375 C 191.730469 230.503906 192.109375 229.320312 192.019531 227.859375 C 191.929688 226.308594 191.410156 225.144531 190.476562 224.410156 " fill-opacity="1" fill-rule="nonzero"/><g clip-path="url(#e7b5f580d0)"><path fill="#000000" d="M 190.621094 240.4375 L 190.535156 240.398438 L 190.464844 240.460938 C 190.4375 240.484375 187.773438 242.832031 185.539062 242.109375 C 184.238281 241.6875 183.324219 240.304688 182.816406 237.996094 L 182.785156 237.84375 L 182.636719 237.886719 C 182.570312 237.90625 176.09375 239.792969 174.515625 237.707031 L 174.371094 237.511719 L 174.269531 237.734375 C 174.25 237.777344 172.328125 241.933594 169.695312 242.269531 C 168.550781 242.414062 167.421875 241.8125 166.335938 240.480469 L 166.171875 240.277344 L 166.085938 240.523438 C 166.003906 240.75 164.097656 246.183594 165.90625 247.976562 C 166.285156 248.347656 166.792969 248.535156 167.425781 248.535156 C 167.949219 248.535156 168.554688 248.410156 169.242188 248.152344 C 171.679688 247.257812 172.558594 246.722656 173.085938 246.402344 C 173.808594 245.964844 173.808594 245.964844 176.738281 245.972656 C 177.164062 245.972656 177.652344 245.972656 178.21875 245.972656 C 184.914062 245.972656 185.203125 247.09375 185.207031 247.09375 L 185.207031 247.179688 L 185.28125 247.21875 C 185.410156 247.289062 188.421875 248.945312 190.242188 247.988281 C 190.988281 247.597656 191.425781 246.824219 191.535156 245.695312 C 191.976562 241.117188 190.675781 240.464844 190.621094 240.4375 " fill-opacity="1" fill-rule="nonzero"/></g><path fill="#000000" d="M 211.46875 169.371094 C 211.375 169.367188 201.832031 168.917969 199.886719 177.53125 C 197.984375 185.964844 194.492188 189.019531 194.457031 189.050781 L 193.839844 189.574219 L 194.601562 189.296875 C 194.992188 189.15625 204.226562 185.769531 206.082031 183.367188 C 206.351562 183.015625 206.667969 182.652344 207.003906 182.265625 C 208.988281 179.976562 211.703125 176.839844 211.609375 169.519531 L 211.605469 169.382812 L 211.46875 169.371094 " fill-opacity="1" fill-rule="nonzero"/><path fill="#000000" d="M 156.09375 177.53125 C 154.148438 168.917969 144.605469 169.367188 144.511719 169.371094 L 144.375 169.382812 L 144.371094 169.519531 C 144.273438 176.839844 146.992188 179.976562 148.976562 182.265625 C 149.3125 182.652344 149.628906 183.015625 149.898438 183.367188 C 151.753906 185.769531 160.988281 189.15625 161.378906 189.296875 L 162.144531 189.578125 L 161.523438 189.050781 C 161.488281 189.019531 158 185.976562 156.09375 177.53125 " fill-opacity="1" fill-rule="nonzero"/><path fill="#000000" d="M 193.769531 225.824219 L 193.46875 225.796875 L 193.632812 226.046875 C 193.699219 226.152344 199.875 236.023438 194.519531 245.125 C 193.996094 245.949219 193.652344 246.449219 193.636719 246.472656 L 193.871094 246.640625 C 194.148438 246.265625 194.402344 245.882812 194.632812 245.5 C 196.617188 242.417969 201.59375 233.898438 199.386719 229.085938 C 198.519531 227.195312 196.628906 226.101562 193.769531 225.824219 " fill-opacity="1" fill-rule="nonzero"/><path fill="#000000" d="M 157.621094 229.230469 C 155.414062 234.042969 160.390625 242.5625 162.375 245.648438 C 162.609375 246.03125 162.863281 246.410156 163.136719 246.789062 L 163.375 246.621094 C 163.359375 246.597656 163.011719 246.097656 162.492188 245.273438 C 157.132812 236.171875 163.3125 226.296875 163.378906 226.191406 L 163.539062 225.941406 L 163.242188 225.96875 C 160.378906 226.246094 158.492188 227.34375 157.621094 229.230469 " fill-opacity="1" fill-rule="nonzero"/></svg>