<svg xmlns="http://www.w3.org/2000/svg" xmlns:xlink="http://www.w3.org/1999/xlink" width="500" zoomAndPan="magnify" viewBox="0 0 375 374.999991" height="500" preserveAspectRatio="xMidYMid meet" version="1.0"><defs><clipPath id="6a8d432a9f"><path d="M 33.34375 53.703125 L 322.84375 53.703125 L 322.84375 355.953125 L 33.34375 355.953125 Z M 33.34375 53.703125 " clip-rule="nonzero"/></clipPath><clipPath id="1e713f81d0"><path d="M 92.140625 63.804688 L 263.890625 63.804688 L 263.890625 261.054688 L 92.140625 261.054688 Z M 92.140625 63.804688 " clip-rule="nonzero"/></clipPath></defs><path fill="#fbfbf9" d="M 178.167969 58.941406 C 131.742188 58.941406 86.707031 64.855469 43.742188 75.914062 C 41.082031 76.601562 39.40625 79.25 39.917969 81.945312 C 59.253906 182.742188 106.71875 273.542969 173.835938 345.851562 C 175.910156 348.089844 179.449219 348.09375 181.53125 345.863281 C 248.929688 273.617188 296.65625 182.785156 316.210938 81.898438 C 316.734375 79.195312 315.058594 76.542969 312.386719 75.855469 C 269.480469 64.832031 224.511719 58.941406 178.167969 58.941406 Z M 178.167969 58.941406 " fill-opacity="1" fill-rule="nonzero"/><g clip-path="url(#6a8d432a9f)"><path fill="#0c120d" d="M 318.464844 72.03125 C 321.105469 72.738281 322.765625 75.355469 322.269531 78.042969 C 303.160156 181.652344 254.476562 276.925781 181.464844 353.558594 C 179.394531 355.730469 175.933594 355.722656 173.875 353.546875 C 101.15625 276.8125 52.742188 181.5625 33.863281 78.085938 C 33.375 75.402344 35.027344 72.792969 37.664062 72.085938 C 83.347656 59.886719 130.621094 53.703125 178.167969 53.703125 C 225.636719 53.703125 272.84375 59.871094 318.464844 72.03125 Z M 181.574219 338.09375 C 246.675781 266.832031 290.902344 180.03125 310.082031 85.851562 C 310.644531 83.085938 308.933594 80.371094 306.1875 79.695312 C 264.433594 69.398438 221.410156 64.175781 178.167969 64.175781 C 134.84375 64.175781 91.753906 69.410156 49.925781 79.75 C 47.1875 80.425781 45.472656 83.132812 46.03125 85.894531 C 65 179.957031 108.976562 266.738281 173.808594 338.082031 C 175.886719 340.371094 179.488281 340.378906 181.574219 338.09375 Z M 181.574219 338.09375 " fill-opacity="1" fill-rule="nonzero"/></g><g clip-path="url(#1e713f81d0)"><path fill="#000000" d="M 228.039062 203.421875 L 238.492188 192.300781 C 237.875 192.507812 237.347656 192.796875 236.878906 193.164062 C 208.347656 215.4375 188.535156 229.960938 183.941406 243.40625 C 183.574219 244.480469 181.980469 244.1875 182.019531 243.054688 C 182.117188 239.914062 182.28125 236.785156 182.496094 233.660156 C 182.695312 230.8125 185.359375 229.558594 194.375 220.199219 C 208.476562 205.550781 224.554688 193.351562 241.457031 182.15625 C 242.453125 181.496094 243.320312 181.320312 244.410156 181.757812 C 250.597656 184.242188 252.496094 184.867188 256.664062 186.664062 C 254.28125 184.277344 252.25 182.964844 242.960938 176.796875 C 241.761719 176.003906 240.632812 176.09375 239.546875 177.109375 C 238.082031 178.476562 234.378906 181.417969 232.691406 182.773438 C 226.625 173.820312 225.59375 173.027344 225.753906 170.285156 C 225.859375 168.554688 225.414062 167.050781 223.929688 165.875 C 222.847656 165.019531 222.066406 163.789062 221.011719 162.890625 C 219.507812 161.605469 218.78125 160.117188 219.140625 158.136719 C 219.183594 157.914062 219.058594 157.65625 218.980469 157.242188 C 217.304688 158.632812 215.757812 159.882812 214.261719 161.195312 C 213.464844 161.894531 213.484375 171.953125 212.386719 183.691406 C 211.988281 187.9375 209.117188 191.238281 205.246094 192.066406 C 210.152344 161.679688 209.644531 162.726562 210.8125 161.789062 C 213.710938 159.460938 216.585938 157.097656 219.59375 154.914062 C 220.9375 153.933594 221.3125 152.820312 221.308594 151.257812 C 221.269531 141.925781 221.378906 132.589844 221.292969 123.253906 C 221.214844 115.15625 218.539062 107.136719 215.546875 102.421875 C 215.234375 101.925781 214.523438 101.894531 214.167969 102.355469 L 202.742188 117.164062 L 206.4375 92.386719 C 206.722656 90.472656 205.25 89.386719 205.339844 89.464844 C 203.0625 87.519531 195.53125 83.386719 187.035156 81.921875 C 186.226562 81.78125 185.8125 81.542969 185.566406 80.785156 C 183.53125 74.515625 183.214844 73.90625 179.378906 63.847656 C 178.132812 66.742188 173.816406 80.363281 173.8125 80.371094 C 173.523438 81.28125 173.234375 81.78125 172.136719 81.980469 C 150.300781 85.964844 134.09375 103.1875 134.210938 124.835938 C 134.261719 134.03125 134.242188 143.226562 134.210938 152.421875 C 134.199219 155.523438 136.597656 153.730469 136.578125 156.816406 C 136.476562 171.304688 136.964844 172.117188 135.976562 174.546875 C 135.253906 176.328125 131.851562 184.496094 130.855469 186.351562 C 129.773438 186.035156 129.597656 185.542969 130.023438 184.574219 C 131.511719 181.175781 132.933594 177.746094 134.320312 174.304688 C 134.886719 172.898438 134.804688 173.261719 134.722656 158.367188 C 134.71875 158.09375 134.644531 157.816406 134.566406 157.300781 C 128.824219 165.738281 127.488281 167.171875 127.269531 170.242188 C 127.222656 170.871094 127.234375 170.714844 121.5 178.875 C 119.804688 177.507812 118.195312 176.257812 116.640625 174.941406 C 115.429688 173.917969 114.234375 173.726562 112.835938 174.589844 C 110.429688 176.078125 112.699219 174.375 98.4375 183.433594 L 105.074219 187.898438 L 92.140625 198.128906 L 104.277344 205.988281 L 99.183594 209.730469 C 109.628906 214.4375 119.898438 219.214844 130.300781 223.695312 C 143.394531 229.335938 147.386719 236.996094 152.753906 245.003906 L 153.128906 244.863281 C 147.632812 227.648438 148.308594 225.417969 137.851562 218.996094 C 108 200.667969 93.152344 197.085938 102.429688 198.933594 C 121.339844 202.710938 142.445312 210.449219 155.390625 224.523438 C 157.230469 226.527344 156.652344 229.75 156.921875 233.59375 C 157.125 236.5 161.316406 236.542969 178.335938 259.367188 C 178.738281 259.90625 179.160156 260.425781 179.621094 261.015625 C 179.9375 260.667969 183.160156 256.425781 183.320312 256.207031 C 201.90625 230.878906 201.925781 236.628906 202.105469 233.898438 C 202.355469 230.128906 201.941406 226.871094 203.628906 224.941406 C 212.183594 215.152344 224.9375 208.089844 237.082031 203.425781 C 249.734375 198.566406 263.890625 195.910156 228.039062 203.421875 Z M 139.832031 149.261719 C 140.027344 146.816406 140.324219 144.382812 140.792969 141.925781 C 142.480469 149.808594 140.578125 145.582031 152.484375 157.859375 C 154.109375 159.535156 153.789062 159.421875 155.707031 179.164062 C 155.933594 181.480469 156.050781 181.4375 155.765625 181.484375 C 150.769531 160.328125 151.300781 160.597656 149.167969 158.675781 C 146.203125 156 143.367188 153.179688 140.503906 150.390625 C 140.195312 150.089844 139.804688 149.621094 139.832031 149.261719 Z M 152.953125 191.90625 C 149.882812 190.261719 147.777344 188.054688 147.667969 184.785156 C 147.46875 178.910156 147.609375 173.023438 147.609375 167.308594 Z M 175.429688 243.363281 C 169.4375 227.011719 150.8125 218.628906 114.957031 184.820312 C 111.734375 181.78125 109.871094 182.414062 107.292969 182.601562 C 109.464844 181.386719 111.410156 180.230469 113.429688 179.222656 C 113.769531 179.054688 114.507812 179.390625 114.917969 179.6875 C 151.179688 206.167969 142.050781 198.578125 175.402344 230.75 C 177.339844 232.621094 176.875 233.5 177.34375 242.976562 C 177.402344 244.105469 175.820312 244.425781 175.429688 243.363281 Z M 160.449219 201.382812 C 158.425781 199.914062 157.910156 198.195312 158.050781 195.785156 L 179.652344 211.929688 L 179.652344 165.324219 C 179.664062 162.277344 179.195312 163.441406 165.800781 154.511719 C 166.195312 154.40625 166.488281 154.492188 166.765625 154.617188 C 178.808594 160.210938 179.300781 160.714844 180.710938 160.128906 C 189.117188 156.621094 197.5 153.0625 205.839844 149.414062 C 206.773438 149.003906 207.765625 148.101562 208.144531 147.1875 C 211.566406 138.980469 211.484375 136.054688 211.890625 133.492188 C 202.652344 142.945312 192.488281 147.0625 180.027344 152.25 C 179.625 152.417969 179.019531 152.339844 178.589844 152.167969 C 167.746094 147.773438 157.117188 143.765625 149.035156 135.816406 C 146.882812 133.699219 145.328125 131.457031 145.921875 128.257812 C 146.101562 127.292969 145.355469 116.683594 154.652344 108.496094 C 156.132812 107.191406 157.886719 106.1875 159.519531 105.046875 C 159.367188 110.304688 160.804688 114.804688 162.980469 119.140625 C 169.207031 131.535156 176.253906 138.917969 179.339844 142.820312 C 189.109375 135.570312 201.753906 108.105469 199.199219 100.183594 C 197.113281 117.496094 185.921875 131.664062 179.5 137.363281 C 177.570312 107.820312 177.8125 106.027344 176.707031 90.496094 C 176.230469 83.761719 178.015625 77.453125 179.582031 71.050781 C 180.457031 74.191406 181.285156 77.328125 181.964844 80.492188 C 183.214844 86.292969 182.980469 80.535156 180.003906 133.042969 L 180.351562 133.085938 C 183.894531 117.34375 188.15625 101.714844 187.574219 85.191406 C 191.804688 86.492188 195.511719 87.410156 199.011719 90.117188 L 195.507812 96.667969 L 203.054688 95.257812 L 198.023438 131.453125 L 207.300781 117.476562 L 206.75 130.355469 C 214.402344 103.128906 213.015625 107.421875 213.378906 108.144531 C 217.460938 116.289062 216.800781 120.964844 216.617188 149.421875 C 216.609375 150.695312 216.195312 151.050781 207.378906 157.804688 C 206.210938 158.703125 205.554688 159.730469 205.34375 161.253906 C 203.628906 173.753906 201.839844 186.246094 200.03125 198.734375 C 199.84375 200.042969 200.152344 199.308594 180.445312 215.222656 C 178.8125 216.542969 179.53125 215.210938 160.449219 201.382812 Z M 251.890625 206.113281 L 257.007812 209.957031 C 231.601562 221.539062 220.03125 225.039062 212.066406 236.390625 C 208.085938 242.0625 207.25 244.3125 206.183594 244.882812 C 209.730469 231.894531 210.722656 224.671875 222.289062 217.757812 C 235.125 210.085938 246.429688 203.941406 259.214844 197.320312 L 252.359375 191.609375 L 252.578125 191.296875 L 263.359375 198.550781 Z M 251.890625 206.113281 " fill-opacity="1" fill-rule="nonzero"/></g></svg>