<svg xmlns="http://www.w3.org/2000/svg" xmlns:xlink="http://www.w3.org/1999/xlink" width="500" zoomAndPan="magnify" viewBox="0 0 375 374.999991" height="500" preserveAspectRatio="xMidYMid meet" version="1.0"><defs><clipPath id="eb1c0d03af"><path d="M 33.34375 53.703125 L 322.84375 53.703125 L 322.84375 355.953125 L 33.34375 355.953125 Z M 33.34375 53.703125 " clip-rule="nonzero"/></clipPath><clipPath id="07b0f05021"><path d="M 158 163 L 221 163 L 221 290.246094 L 158 290.246094 Z M 158 163 " clip-rule="nonzero"/></clipPath></defs><path fill="#fd0303" d="M 178.167969 58.941406 C 131.742188 58.941406 86.707031 64.855469 43.742188 75.914062 C 41.082031 76.601562 39.40625 79.25 39.917969 81.945312 C 59.253906 182.742188 106.71875 273.542969 173.835938 345.851562 C 175.910156 348.089844 179.449219 348.09375 181.53125 345.863281 C 248.929688 273.617188 296.65625 182.785156 316.210938 81.898438 C 316.734375 79.195312 315.058594 76.542969 312.386719 75.855469 C 269.480469 64.832031 224.511719 58.941406 178.167969 58.941406 Z M 178.167969 58.941406 " fill-opacity="1" fill-rule="nonzero"/><g clip-path="url(#eb1c0d03af)"><path fill="#0c120d" d="M 318.464844 72.03125 C 321.105469 72.738281 322.765625 75.355469 322.269531 78.042969 C 303.160156 181.652344 254.476562 276.925781 181.464844 353.558594 C 179.394531 355.730469 175.933594 355.722656 173.875 353.546875 C 101.15625 276.8125 52.742188 181.5625 33.863281 78.085938 C 33.375 75.402344 35.027344 72.792969 37.664062 72.085938 C 83.347656 59.886719 130.621094 53.703125 178.167969 53.703125 C 225.636719 53.703125 272.84375 59.871094 318.464844 72.03125 Z M 181.574219 338.09375 C 246.675781 266.832031 290.902344 180.03125 310.082031 85.851562 C 310.644531 83.085938 308.933594 80.371094 306.1875 79.695312 C 264.433594 69.398438 221.410156 64.175781 178.167969 64.175781 C 134.84375 64.175781 91.753906 69.410156 49.925781 79.75 C 47.1875 80.425781 45.472656 83.132812 46.03125 85.894531 C 65 179.957031 108.976562 266.738281 173.808594 338.082031 C 175.886719 340.371094 179.488281 340.378906 181.574219 338.09375 Z M 181.574219 338.09375 " fill-opacity="1" fill-rule="nonzero"/></g><path fill="#0c120d" d="M 114.417969 182.296875 C 112.96875 180.675781 112.332031 178.488281 112.585938 176.332031 L 112.597656 176.261719 C 112.640625 175.894531 112.78125 175.546875 113.011719 175.253906 C 114.847656 172.910156 116.011719 170.929688 116.011719 170.929688 C 105.828125 174.808594 91.28125 160.734375 91.28125 160.734375 C 91.28125 160.734375 91.085938 161.371094 91.007812 162.546875 L 91.003906 162.511719 C 91.003906 162.511719 90.503906 164.015625 90.398438 166.089844 C 90.386719 166.28125 90.328125 166.46875 90.226562 166.628906 L 90.222656 166.632812 C 89.890625 167.199219 89.558594 167.882812 89.320312 168.65625 C 89.207031 169.042969 89.070312 169.457031 89.003906 169.882812 C 88.964844 170.09375 88.925781 170.3125 88.886719 170.535156 C 88.84375 170.757812 88.828125 170.984375 88.808594 171.210938 C 88.789062 171.441406 88.773438 171.671875 88.757812 171.90625 L 88.757812 171.933594 C 88.75 172.121094 88.746094 172.429688 88.738281 172.617188 C 88.742188 172.855469 88.746094 173.097656 88.757812 173.339844 C 88.769531 173.582031 88.761719 173.832031 88.796875 174.074219 C 88.847656 174.554688 88.914062 175.050781 88.980469 175.550781 C 89.0625 176.046875 89.179688 176.53125 89.292969 177.027344 C 89.398438 177.527344 89.542969 178.011719 89.703125 178.492188 C 89.78125 178.734375 89.855469 178.976562 89.9375 179.21875 L 90.152344 179.855469 C 90.3125 180.304688 90.46875 180.75 90.636719 181.195312 L 90.757812 181.527344 L 90.855469 181.824219 C 90.921875 182.023438 90.980469 182.21875 91.046875 182.410156 C 91.183594 182.796875 91.324219 183.179688 91.433594 183.585938 C 91.492188 183.785156 91.554688 183.980469 91.617188 184.179688 C 91.675781 184.375 91.75 184.570312 91.789062 184.765625 C 91.886719 185.152344 91.996094 185.535156 92.101562 185.910156 C 92.179688 186.285156 92.265625 186.652344 92.359375 187.015625 C 92.421875 187.375 92.484375 187.722656 92.558594 188.070312 C 92.605469 188.410156 92.648438 188.746094 92.699219 189.070312 C 92.730469 189.398438 92.761719 189.710938 92.785156 190.007812 C 92.796875 190.304688 92.8125 190.597656 92.816406 190.867188 C 92.8125 191.414062 92.789062 191.90625 92.738281 192.316406 C 92.695312 192.726562 92.625 193.058594 92.574219 193.285156 C 92.519531 193.511719 92.476562 193.636719 92.476562 193.636719 C 92.476562 193.636719 92.601562 193.589844 92.808594 193.460938 C 92.914062 193.394531 93.042969 193.3125 93.179688 193.195312 C 93.25 193.136719 93.328125 193.078125 93.40625 193.011719 C 93.480469 192.9375 93.558594 192.859375 93.644531 192.78125 C 93.980469 192.453125 94.332031 192.007812 94.6875 191.449219 C 94.863281 191.167969 95.007812 190.859375 95.183594 190.527344 C 95.296875 190.273438 95.402344 190.003906 95.511719 189.722656 C 96.660156 190.996094 98.25 192.152344 100.449219 192.980469 C 100.449219 192.980469 97.007812 190.097656 96.671875 185.441406 L 96.679688 185.4375 C 97.175781 185.109375 97.839844 185.242188 98.167969 185.734375 C 98.417969 186.105469 98.679688 186.480469 98.957031 186.847656 C 99.003906 186.945312 99.042969 187.046875 99.089844 187.144531 C 99.261719 187.515625 99.441406 187.886719 99.589844 188.277344 C 99.667969 188.46875 99.75 188.660156 99.828125 188.851562 C 99.90625 189.039062 100 189.226562 100.058594 189.414062 C 100.195312 189.789062 100.34375 190.160156 100.480469 190.523438 C 100.597656 190.890625 100.71875 191.246094 100.84375 191.597656 C 100.945312 191.949219 101.042969 192.292969 101.148438 192.628906 C 101.230469 192.960938 101.304688 193.289062 101.386719 193.613281 C 101.449219 193.933594 101.507812 194.242188 101.566406 194.535156 C 101.605469 194.828125 101.648438 195.117188 101.675781 195.390625 C 101.730469 195.933594 101.753906 196.425781 101.742188 196.835938 C 101.738281 197.253906 101.703125 197.582031 101.671875 197.816406 C 101.644531 198.050781 101.613281 198.179688 101.613281 198.179688 C 101.613281 198.179688 101.730469 198.121094 101.925781 197.96875 C 102.023438 197.894531 102.144531 197.796875 102.269531 197.667969 C 102.332031 197.605469 102.40625 197.539062 102.476562 197.460938 C 102.542969 197.382812 102.617188 197.296875 102.691406 197.210938 C 102.992188 196.851562 103.300781 196.371094 103.597656 195.78125 C 103.746094 195.488281 103.859375 195.164062 104.003906 194.816406 C 104.117188 194.46875 104.222656 194.097656 104.328125 193.699219 C 104.402344 193.308594 104.480469 192.894531 104.542969 192.460938 C 104.550781 192.359375 104.558594 192.253906 104.566406 192.152344 C 106.332031 193.355469 108.382812 194.433594 110.773438 195.328125 C 110.773438 195.328125 108.570312 193.488281 106.460938 190.195312 C 105.160156 188.171875 105.566406 185.492188 107.371094 183.902344 L 107.425781 183.90625 C 107.484375 183.992188 107.542969 184.078125 107.605469 184.160156 C 107.78125 184.398438 107.964844 184.632812 108.132812 184.890625 C 108.300781 185.144531 108.5 185.386719 108.65625 185.632812 C 108.8125 185.875 108.984375 186.117188 109.148438 186.351562 C 109.292969 186.59375 109.445312 186.824219 109.597656 187.054688 C 109.730469 187.285156 109.867188 187.515625 110.007812 187.734375 C 110.128906 187.957031 110.246094 188.175781 110.375 188.390625 C 110.476562 188.605469 110.582031 188.816406 110.6875 189.019531 C 110.78125 189.230469 110.867188 189.429688 110.953125 189.617188 C 111.105469 190 111.234375 190.359375 111.316406 190.664062 C 111.40625 190.976562 111.460938 191.234375 111.492188 191.417969 C 111.523438 191.601562 111.53125 191.707031 111.53125 191.707031 C 111.53125 191.707031 111.621094 191.652344 111.765625 191.519531 C 111.839844 191.453125 111.929688 191.367188 112.019531 191.253906 C 112.066406 191.203125 112.117188 191.144531 112.167969 191.074219 C 112.214844 191.007812 112.265625 190.933594 112.316406 190.859375 C 112.53125 190.550781 112.730469 190.144531 112.910156 189.648438 C 113 189.402344 113.058594 189.136719 113.136719 188.851562 C 113.195312 188.5625 113.238281 188.261719 113.277344 187.9375 C 113.289062 187.753906 113.296875 187.558594 113.304688 187.359375 C 116.496094 188.742188 120.550781 189.402344 125.5625 188.308594 C 125.5625 188.308594 119.058594 187.503906 114.417969 182.296875 " fill-opacity="1" fill-rule="nonzero"/><g clip-path="url(#07b0f05021)"><path fill="#0c120d" d="M 196.667969 221.503906 C 229.398438 184.527344 218.53125 163.101562 218.53125 163.101562 C 211.953125 190.273438 181.902344 212.515625 181.902344 212.515625 C 131.796875 251.566406 178.449219 290.617188 178.449219 290.617188 C 178.449219 290.617188 163.933594 258.476562 196.667969 221.503906 " fill-opacity="1" fill-rule="nonzero"/></g><path fill="#0c120d" d="M 196.667969 187.292969 C 231.125 146.171875 196.667969 136.148438 196.667969 136.148438 C 212.679688 157.105469 192.167969 177.398438 192.167969 177.398438 C 207.25 138.261719 177.425781 140.996094 177.425781 140.996094 C 191.707031 159.425781 176.042969 161.730469 144.25 200.4375 C 112.453125 239.140625 158.699219 285.679688 158.699219 285.679688 C 139.054688 224.398438 162.207031 228.414062 196.667969 187.292969 " fill-opacity="1" fill-rule="nonzero"/><path fill="#0c120d" d="M 137.796875 199.515625 C 100.933594 227.621094 137.796875 268.632812 137.796875 268.632812 C 120.289062 233.613281 137.796875 199.515625 137.796875 199.515625 " fill-opacity="1" fill-rule="nonzero"/><path fill="#0c120d" d="M 157.378906 83.167969 C 137.398438 84.851562 133.019531 101.746094 132.410156 104.675781 C 135.328125 103.683594 138.820312 103.019531 142.960938 102.964844 C 144.589844 88.90625 157.378906 83.167969 157.378906 83.167969 " fill-opacity="1" fill-rule="nonzero"/><path fill="#0c120d" d="M 217.972656 117.496094 C 235.480469 117.957031 259.902344 139.152344 259.902344 139.152344 C 259.902344 139.152344 260.824219 136.386719 242.164062 119.339844 C 223.5 102.289062 182.261719 103.441406 182.261719 103.441406 C 208.527344 96.300781 217.742188 105.976562 236.863281 109.894531 C 255.988281 113.808594 259.902344 96.53125 259.902344 96.53125 C 259.902344 96.53125 238.246094 103.210938 216.589844 93.996094 C 194.933594 84.78125 178.574219 94.917969 178.574219 94.917969 C 185.546875 94.253906 191.476562 96.070312 191.476562 96.070312 C 178.574219 94.917969 162.449219 103.902344 162.449219 103.902344 C 185.488281 78.101562 212.902344 88.929688 212.902344 88.929688 C 212.902344 88.929688 225.113281 96.53125 231.335938 94.917969 C 237.554688 93.304688 242.855469 84.78125 242.855469 84.78125 C 230.414062 87.546875 220.507812 85.472656 220.507812 85.472656 C 220.507812 85.472656 195.164062 70.496094 172.816406 78.332031 C 153.554688 85.082031 145.246094 99.191406 143.320312 102.957031 C 143.390625 102.957031 143.457031 102.957031 143.527344 102.957031 C 146.511719 102.957031 149.707031 103.273438 153.035156 103.894531 L 153.082031 103.894531 C 154.785156 103.894531 159.832031 104.136719 162.929688 106.824219 C 163.285156 106.941406 163.640625 107.0625 163.992188 107.183594 C 166.710938 106.089844 171.953125 104.285156 177.003906 104.285156 C 183.59375 104.285156 187.871094 107.335938 189.375 113.113281 C 190.410156 117.089844 190.140625 120.832031 188.613281 124.195312 C 241.375 152.601562 215.078125 209.40625 215.078125 209.40625 C 183.773438 246.824219 200.566406 258.824219 200.566406 258.824219 C 202.777344 241.128906 215.039062 227.257812 223.582031 219.5625 C 230.914062 212.957031 236.058594 204.242188 238.070312 194.578125 C 248.882812 142.699219 194.933594 123.257812 194.933594 123.257812 C 272.34375 141.226562 240.089844 210.574219 240.089844 210.574219 C 240.089844 210.574219 259.910156 201.128906 259.910156 166.570312 C 259.910156 132.011719 217.972656 117.496094 217.972656 117.496094 " fill-opacity="1" fill-rule="nonzero"/><path fill="#0c120d" d="M 131.191406 123.488281 C 131.191406 123.488281 134.109375 117.1875 143.789062 120.566406 C 143.789062 120.566406 142.40625 125.636719 133.421875 126.097656 C 133.421875 126.097656 120.441406 131.320312 118.75 131.164062 Z M 94.332031 155.742188 C 100.265625 167.613281 111.269531 168.035156 115.652344 167.6875 C 116.90625 167.585938 118.113281 167.152344 119.136719 166.417969 C 119.238281 166.351562 119.332031 166.277344 119.425781 166.207031 C 132.292969 169.636719 143.789062 164.835938 143.789062 164.835938 C 133.863281 166.710938 126.417969 165.574219 121.675781 164.144531 C 122.476562 163.230469 123.085938 162.296875 123.542969 161.390625 C 136.109375 164.453125 147.175781 159.832031 147.175781 159.832031 C 136.835938 161.785156 129.183594 160.472656 124.480469 158.957031 C 124.601562 158.511719 124.691406 158.089844 124.757812 157.695312 C 124.789062 157.519531 124.808594 157.335938 124.820312 157.15625 C 137.335938 160.160156 148.324219 155.570312 148.324219 155.570312 C 136.925781 157.726562 128.796875 155.90625 124.277344 154.226562 C 124.152344 153.960938 124.011719 153.703125 123.847656 153.457031 L 121.414062 149.75 C 121.414062 149.75 138.027344 155.050781 147.703125 155.050781 C 157.378906 155.050781 154.847656 172.789062 154.847656 172.789062 C 175.582031 157.816406 163.601562 148.367188 163.601562 148.367188 C 169.359375 147.214844 172.535156 154.128906 172.535156 154.128906 C 172.253906 143.992188 164.292969 136.148438 164.292969 136.148438 C 176.273438 124.160156 170.050781 116.34375 170.050781 116.34375 C 170.050781 116.34375 175.8125 111.277344 180.878906 115.191406 C 185.949219 119.109375 175.8125 133.164062 175.8125 133.164062 C 175.8125 133.164062 191.246094 127.632812 187.589844 113.578125 C 183.9375 99.527344 162.910156 109.664062 162.910156 109.664062 C 160.605469 105.515625 152.875 105.738281 152.875 105.738281 C 125.574219 100.554688 119.355469 118.523438 119.355469 118.523438 C 92.054688 123.015625 85.804688 139.132812 85.804688 139.132812 C 92.160156 133.816406 102.777344 135.3125 102.777344 135.3125 C 97.25 136.847656 92.027344 147.753906 92.027344 147.753906 C 91.71875 143.761719 85.820312 139.460938 85.820312 139.460938 C 83.730469 142.769531 85.882812 149.136719 85.882812 149.136719 C 84.960938 158.964844 94.332031 155.742188 94.332031 155.742188 " fill-opacity="1" fill-rule="nonzero"/></svg>